<?xml version="1.0" encoding="UTF-8" standalone="no"?>
<!-- Created with Inkscape (http://www.inkscape.org/) -->

<svg
   xmlns:dc="http://purl.org/dc/elements/1.1/"
   xmlns:cc="http://creativecommons.org/ns#"
   xmlns:rdf="http://www.w3.org/1999/02/22-rdf-syntax-ns#"
   xmlns:svg="http://www.w3.org/2000/svg"
   xmlns="http://www.w3.org/2000/svg"
   xmlns:sodipodi="http://sodipodi.sourceforge.net/DTD/sodipodi-0.dtd"
   xmlns:inkscape="http://www.inkscape.org/namespaces/inkscape"
   width="512pt"
   height="512pt"
   viewBox="0 0 180.62222 180.62222"
   version="1.1"
   id="svg8"
   inkscape:version="0.92.4 (5da689c313, 2019-01-14)"
   sodipodi:docname="U+521D.svgbg.svg">
  <defs
     id="defs2" />
  <sodipodi:namedview
     id="base"
     pagecolor="#ffffff"
     bordercolor="#666666"
     borderopacity="1.0"
     inkscape:pageopacity="0.0"
     inkscape:pageshadow="2"
     inkscape:zoom="1.979899"
     inkscape:cx="271.01705"
     inkscape:cy="386.78774"
     inkscape:document-units="mm"
     inkscape:current-layer="layer1"
     showgrid="false"
     units="pt"
     inkscape:window-width="1920"
     inkscape:window-height="1017"
     inkscape:window-x="-8"
     inkscape:window-y="-8"
     inkscape:window-maximized="1" />
  <metadata
     id="metadata5">
    <rdf:RDF>
      <cc:Work
         rdf:about="">
        <dc:format>image/svg+xml</dc:format>
        <dc:type
           rdf:resource="http://purl.org/dc/dcmitype/StillImage" />
        <dc:title></dc:title>
      </cc:Work>
    </rdf:RDF>
  </metadata>
  <g
     inkscape:label="圖層 1"
     inkscape:groupmode="layer"
     id="layer1"
     transform="translate(0,-116.37774)">
    <path
       style="fill:#000000;stroke:#000000;stroke-width:0.26458332px;stroke-linecap:butt;stroke-linejoin:miter;stroke-opacity:1;fill-opacity:1"
       d="m 41.159506,138.24187 c 5.078122,11.75986 5.078122,12.2944 5.078122,12.02713 0,-0.26727 10.156242,8.55262 10.156242,8.55262 l 11.759859,-2.67269 8.285355,-6.68174 -8.018086,-5.87993 -10.423512,-0.26727 -9.354433,-2.13816 z"
       id="path21"
       inkscape:connector-curvature="0" />
    <path
       style="fill:#000000;stroke:#000000;stroke-width:0.26458332px;stroke-linecap:butt;stroke-linejoin:miter;stroke-opacity:1;fill-opacity:1"
       d="m 6.9490076,193.56666 c 0,0 5.6126604,6.28083 30.6023594,-4.81085 l 29.800554,-13.22984 c 0,0 10.958051,-16.97162 12.828937,-3.0736 4.009043,6.81537 4.009043,6.81537 4.009043,6.81537"
       id="path27"
       inkscape:connector-curvature="0" />
    <path
       style="fill:#000000;stroke:#000000;stroke-width:0.26458332px;stroke-linecap:butt;stroke-linejoin:miter;stroke-opacity:1;fill-opacity:1"
       d="m 84.1899,179.26774 c -10.15624,1.46998 -10.289876,1.20271 -10.289876,1.20271 -16.704345,25.79151 -16.704345,25.79151 -16.704345,25.79151 -17.506154,24.85607 -17.506154,24.85607 -17.506154,24.85607 -19.243406,19.64431 -19.377041,19.64431 -19.377041,19.64431 -10.289877,7.21628 -10.8244158,5.87993 -10.8244158,5.87993 38.2195428,-45.83673 38.2195428,-45.83673 38.2195428,-45.83673 14.298919,-24.9897 14.298919,-24.9897 14.298919,-24.9897 -24.856066,10.55715 -24.856066,10.55715 -24.856066,10.55715 -16.169806,15.10073 -24.054257,15.10073 -24.054257,15.10073 -8.9535293,-8.55263 -8.9535293,-8.55263 -8.9535293,-8.55263 2.8063299,-9.35443 2.8063299,-9.35443 2.8063299,-9.35443"
       id="path31"
       inkscape:connector-curvature="0" />
    <path
       style="fill:none;stroke:#000000;stroke-width:0.26458332px;stroke-linecap:butt;stroke-linejoin:miter;stroke-opacity:1"
       d="m 58.66566,224.30265 v 0"
       id="path43"
       inkscape:connector-curvature="0" />
    <path
       style="fill:none;stroke:#000000;stroke-width:0.26458332px;stroke-linecap:butt;stroke-linejoin:miter;stroke-opacity:1"
       d="m 58.66566,224.30265 v 0"
       id="path45"
       inkscape:connector-curvature="0" />
    <path
       style="fill:#000000;stroke:#000000;stroke-width:0.26458332px;stroke-linecap:butt;stroke-linejoin:miter;stroke-opacity:1;fill-opacity:1"
       d="m 168.51344,192.89849 c -26.45969,68.15372 -26.45969,68.15372 -26.45969,68.15372 -6.41446,7.08265 -6.41446,7.08265 -6.41446,7.08265 -10.15625,-0.13364 -10.15625,-0.13364 -10.15625,-0.13364 -3.60814,-17.37252 -3.60814,-17.50615 -3.60814,-17.50615 11.09169,2.6727 11.09169,2.6727 11.09169,2.6727 8.01809,-15.23437 9.2208,-18.0407 9.2208,-18.0407 12.56167,-39.68952 12.56167,-39.68952 12.56167,-39.68952 -5.07812,-2.27179 -5.07812,-2.27179 -5.07812,-2.27179 -18.0407,4.40994 -18.0407,4.40994 -18.0407,4.40994 -24.45516,9.48807 -24.05426,9.75534 -24.05426,9.75534 -13.630741,-10.02261 -13.630741,-10.02261 -13.630741,-10.02261 0.668174,-4.67721 0.668174,-4.67721 0.668174,-4.67721 7.216277,-4.00905 7.216277,-4.00905 7.216277,-4.00905 5.61266,3.0736 5.61266,3.0736 5.61266,3.0736"
       id="path57"
       inkscape:connector-curvature="0" />
    <path
       style="fill:#000000;stroke:#000000;stroke-width:0.26458332px;stroke-linecap:butt;stroke-linejoin:miter;stroke-opacity:1;fill-opacity:1"
       d="m 120.00402,206.66287 c 6.41446,10.28987 6.41446,10.28987 6.41446,10.28987 -12.6953,27.12786 -12.6953,27.12786 -12.6953,27.12786 -14.165281,19.24341 -18.842498,20.84702 -18.842498,20.84702"
       id="path59"
       inkscape:connector-curvature="0" />
    <path
       style="fill:#000000;stroke:#000000;stroke-width:0.26458332px;stroke-linecap:butt;stroke-linejoin:miter;stroke-opacity:1;fill-opacity:1"
       d="m 94.88068,264.92762 c -4.543581,0.13364 -4.543581,0.13364 -4.543581,0.13364 1.336349,-5.61266 1.336349,-5.61266 1.336349,-5.61266 2.672695,-0.26727 2.672695,-0.26727 2.672695,-0.26727 13.764377,-14.03165 13.764377,-14.03165 13.764377,-14.03165 11.75986,-27.6624 11.75986,-27.6624 11.75986,-27.6624 0.13364,-10.82441 0.13364,-10.82441 0.13364,-10.82441"
       id="path61"
       inkscape:connector-curvature="0" />
    <path
       style="fill:#000000;stroke:#000000;stroke-width:0.26458332px;stroke-linecap:butt;stroke-linejoin:miter;stroke-opacity:1;fill-opacity:1"
       d="m 107.44235,191.69577 c 33.67596,-8.68626 33.67596,-8.68626 33.67596,-8.68626 4.94449,-4.81085 4.94449,-4.81085 4.94449,-4.81085 22.45064,14.69983 22.45064,14.69983 22.45064,14.69983"
       id="path871"
       inkscape:connector-curvature="0" />
    <path
       style="fill:#000000;stroke:#000000;stroke-width:0.26458332px;stroke-linecap:butt;stroke-linejoin:miter;stroke-opacity:1;fill-opacity:1"
       d="m 125.48304,268.00122 c 2.00452,7.48355 2.00452,7.48355 2.00452,7.48355 8.15173,-7.34991 8.15173,-7.34991 8.15173,-7.34991"
       id="path873"
       inkscape:connector-curvature="0" />
    <path
       style="fill:none;stroke:#000000;stroke-width:0.26458332px;stroke-linecap:butt;stroke-linejoin:miter;stroke-opacity:1"
       d="m 86.862596,232.72165 c 1.469983,6.949 1.469983,6.949 1.469983,6.949 -2.539061,1.06908 -2.539061,1.06908 -2.539061,1.06908"
       id="path881"
       inkscape:connector-curvature="0" />
    <path
       style="fill:#000000;stroke:#000000;stroke-width:0.26458332px;stroke-linecap:butt;stroke-linejoin:miter;stroke-opacity:1;fill-opacity:1"
       d="m 57.195677,212.9437 c -3.875408,35.94775 -3.875408,35.94775 -3.875408,35.94775 -1.603615,16.70435 -1.202711,20.57976 -1.202711,20.57976 3.741773,5.07812 4.009043,6.1472 4.009043,6.1472 4.543582,-4.27632 4.543582,-4.27632 4.543582,-4.27632 -2.405426,-35.14594 -2.405426,-35.14594 -2.405426,-35.14594 1.603617,-8.41899 1.603617,-8.41899 1.603617,-8.41899 4.810852,-1.06908 4.810852,-1.06908 4.810852,-1.06908 5.078121,6.81537 5.078121,6.81537 5.078121,6.81537"
       id="path887"
       inkscape:connector-curvature="0" />
    <path
       style="fill:#000000;stroke:#000000;stroke-width:0.26458332px;stroke-linecap:butt;stroke-linejoin:miter;stroke-opacity:1;fill-opacity:1"
       d="m 69.757347,233.52345 c 16.036171,7.21628 16.036171,7.21628 16.036171,7.21628 l 2.539061,-1.06908 -1.469983,-6.949 -29.666919,-19.77795 z"
       id="path889"
       inkscape:connector-curvature="0" />
    <path
       style="fill:#000000;stroke:#000000;stroke-width:0.26458332px;stroke-linecap:butt;stroke-linejoin:miter;stroke-opacity:1;fill-opacity:1"
       d="m 57.195677,212.9437 c 2.806332,-0.53454 2.672696,-0.53454 2.672696,-0.53454 0.400906,4.94449 0.400906,4.94449 0.400906,4.94449 6.414468,2.00452 6.414468,2.00452 6.414468,2.00452 9.354434,-12.2944 9.354434,-12.2944 9.354434,-12.2944 2.004521,-12.2944 2.271791,-13.89801 2.271791,-13.89801 7.884451,13.49711 7.617181,12.96257 7.617181,12.96257 -12.561668,17.23888 -16.036171,15.50163 -16.036171,15.50163 18.174327,7.61718 16.971614,11.09169 16.971614,11.09169"
       id="path891"
       inkscape:connector-curvature="0" />
  </g>
</svg>
