<?xml version="1.0" encoding="UTF-8" standalone="no"?>
<!-- Created with Inkscape (http://www.inkscape.org/) -->

<svg
   xmlns:dc="http://purl.org/dc/elements/1.1/"
   xmlns:cc="http://creativecommons.org/ns#"
   xmlns:rdf="http://www.w3.org/1999/02/22-rdf-syntax-ns#"
   xmlns:svg="http://www.w3.org/2000/svg"
   xmlns="http://www.w3.org/2000/svg"
   xmlns:sodipodi="http://sodipodi.sourceforge.net/DTD/sodipodi-0.dtd"
   xmlns:inkscape="http://www.inkscape.org/namespaces/inkscape"
   width="512"
   height="512"
   viewBox="0 0 135.46666 135.46667"
   version="1.1"
   id="svg8828"
   inkscape:version="0.92.4 (5da689c313, 2019-01-14)"
   sodipodi:docname="U+696D.svgbg.svg">
  <defs
     id="defs8822" />
  <sodipodi:namedview
     id="base"
     pagecolor="#ffffff"
     bordercolor="#666666"
     borderopacity="1.0"
     inkscape:pageopacity="0.0"
     inkscape:pageshadow="2"
     inkscape:zoom="1.4"
     inkscape:cx="300.5514"
     inkscape:cy="222.4798"
     inkscape:document-units="mm"
     inkscape:current-layer="layer1"
     showgrid="false"
     units="px"
     inkscape:window-width="1920"
     inkscape:window-height="1017"
     inkscape:window-x="-8"
     inkscape:window-y="-8"
     inkscape:window-maximized="1" />
  <metadata
     id="metadata8825">
    <rdf:RDF>
      <cc:Work
         rdf:about="">
        <dc:format>image/svg+xml</dc:format>
        <dc:type
           rdf:resource="http://purl.org/dc/dcmitype/StillImage" />
        <dc:title></dc:title>
      </cc:Work>
    </rdf:RDF>
  </metadata>
  <g
     inkscape:label="圖層 1"
     inkscape:groupmode="layer"
     id="layer1"
     transform="translate(0,-161.53332)">
    <path
       style="fill:#000000;stroke:#000000;stroke-width:0.26458332px;stroke-linecap:butt;stroke-linejoin:miter;stroke-opacity:1;fill-opacity:1"
       d="m 4.1577381,210.82141 c 4.5357142,2.64584 10.2053569,2.64584 10.9613089,2.45685 C 15.875,213.08927 65.389881,201.561 65.389881,201.561 l 51.215769,1.32291 3.96875,-2.45684 13.22917,6.80357 0.56696,5.10268 -10.20535,-1.88988 c 0,0 -37.797622,-8.88244 -54.995538,-4.91369 -17.197917,3.96875 -44.223214,11.33928 -44.223214,11.33928 0,0 -9.071428,7.37054 -11.528273,5.85863 -2.456846,-1.5119 -9.2604169,-11.90625 -9.2604169,-11.90625 z"
       id="path8843"
       inkscape:connector-curvature="0" />
    <path
       style="fill:#000000;stroke:#000000;stroke-width:0.26458332px;stroke-linecap:butt;stroke-linejoin:miter;stroke-opacity:1;fill-opacity:1"
       d="m 45.924107,180.01636 c 2.456844,6.99255 4.913691,6.42559 5.102677,12.85119 0.18899,6.42559 3.023809,17.57589 3.023809,17.57589 l 2.267858,0.94494 0.566965,-12.6622 -1.133927,-11.33929 -3.023812,-4.53571 z"
       id="path8845"
       inkscape:connector-curvature="0" />
    <path
       style="fill:#000000;stroke:#000000;stroke-width:0.26458332px;stroke-linecap:butt;stroke-linejoin:miter;stroke-opacity:1;fill-opacity:1"
       d="m 30.427083,188.33183 12.662201,6.4256 4.346726,-2.26786 -1.511903,9.63839 c 0,0 -0.377976,1.51191 -1.700893,2.45685 -1.322916,0.94494 -6.236607,-3.59078 -8.693454,-6.04762 -2.456844,-2.45685 -6.236604,-7.9375 -6.236604,-7.9375 z"
       id="path8847"
       inkscape:connector-curvature="0" />
    <path
       style="fill:#000000;stroke:#000000;stroke-width:0.26458332px;stroke-linecap:butt;stroke-linejoin:miter;stroke-opacity:1;fill-opacity:1"
       d="m 62.177083,170.37796 c 0,0 3.401784,-0.18899 3.401784,5.10268 0,5.29167 -0.94494,21.73363 -0.94494,21.73363 l -3.96875,1.32292 6.803572,8.88244 6.425594,-26.83631 3.212799,-1.13393 -4.724702,-6.04762 -4.535715,-2.83482 z"
       id="path8849"
       inkscape:connector-curvature="0" />
    <path
       style="fill:#000000;stroke:#000000;stroke-width:0.26458332px;stroke-linecap:butt;stroke-linejoin:miter;stroke-opacity:1;fill-opacity:1"
       d="m 86.745534,178.88243 c -0.188987,6.61458 -3.212796,8.12648 -3.212796,8.12648 l -5.291666,4.91369 -2.645834,3.59078 c 0,0 20.788688,-9.63839 20.410712,-12.6622 -0.377975,-3.02381 -4.346725,-6.4256 -4.346725,-6.4256 z"
       id="path8853"
       inkscape:connector-curvature="0" />
    <path
       style="fill:#000000;stroke:#000000;stroke-width:0.26458332px;stroke-linecap:butt;stroke-linejoin:miter;stroke-opacity:1;fill-opacity:1"
       d="m 37.797618,230.85415 c 0,0 1.889882,9.26042 6.047621,6.99256 4.157736,-2.26786 16.252975,-6.23661 16.252975,-6.23661 0,0 2.645834,-0.75595 2.267858,0.18899 -0.377979,0.94494 3.023809,0.75595 0.377976,4.34673 -2.645834,3.59077 -9.260417,4.7247 -9.260417,4.7247 l -5.858632,2.45685 c 0,0 3.02381,6.04762 5.480656,5.85863 2.456844,-0.18899 10.016368,-4.91369 10.016368,-4.91369 l 0.755952,5.66964 -16.819941,5.48065 -9.638392,1.32292 c 0,0 4.157739,5.66964 9.07143,6.4256 4.913688,0.75595 17.575892,-4.53572 17.575892,-4.53572 0,0 2.456844,10.77232 0.755952,13.41816 -1.700893,2.64583 -11.528274,1.88988 -11.528274,1.88988 0,0 -0.944941,0.18899 3.023809,3.77976 3.96875,3.59077 8.504465,8.88244 8.504465,8.88244 0,0 5.102677,2.83482 5.102677,-1.13393 0,-3.96875 0.377979,-17.00893 0.377979,-18.33184 0,-1.32292 -0.944941,-9.6384 -0.944941,-9.6384 0,0 3.212796,-3.77976 10.394344,-3.40178 7.181548,0.37797 15.308035,1.88988 15.308035,1.88988 l 2.645833,0.75595 c 0,0 -0.944938,-3.2128 -6.047618,-6.42559 -5.102678,-3.2128 -18.331844,-0.75596 -18.331844,-0.75596 l -3.779764,0.37798 -1.889879,-7.9375 12.662202,-3.96875 c 0,0 1.322916,-2.45685 -0.377976,-3.40179 -1.700892,-0.94494 -8.504465,-0.94494 -8.504465,-0.94494 l -3.779761,2.07887 -0.755954,-5.48065 3.779763,-2.83482 9.449404,-0.75596 c 0,0 6.803572,-0.18898 7.559524,-0.37797 0.755951,-0.18899 2.645833,-2.83482 2.645833,-2.83482 l -2.83482,-2.45685 c 0,0 2.645833,-3.21279 -6.803572,-0.75595 -9.449406,2.45684 -42.900298,10.58333 -42.900298,10.58333 z"
       id="path8855"
       inkscape:connector-curvature="0" />
    <path
       style="fill:#000000;stroke:#000000;stroke-width:0.26458332px;stroke-linecap:butt;stroke-linejoin:miter;stroke-opacity:1;fill-opacity:1"
       d="m 44.790177,215.92409 c 5.10268,7.55953 3.401787,7.18155 6.047621,7.74851 2.645833,0.56697 3.023809,0.75596 3.590774,0.56697 0.566962,-0.18899 -0.188989,-4.34673 -0.188989,-4.34673 l 1.322916,-4.53571 -5.291666,0.94494 z"
       id="path8857"
       inkscape:connector-curvature="0" />
    <path
       style="fill:#000000;stroke:#000000;stroke-width:0.26458332px;stroke-linecap:butt;stroke-linejoin:miter;stroke-opacity:1;fill-opacity:1"
       d="m 62.744048,220.6488 c 0,0 9.071427,-6.4256 9.827379,-8.88245 0.755954,-2.45684 1.13393,-4.34672 1.13393,-4.34672 l 2.834819,-1.5119 c 0,0 0.755955,-0.56697 2.078871,1.13392 1.322917,1.7009 1.889879,2.83483 2.456844,3.59078 0.566965,0.75595 1.133931,4.91369 1.133931,4.91369 l -2.456847,2.26786 -3.212799,3.0238 -13.985118,3.77977 -2.83482,-1.32292 z"
       id="path8859"
       inkscape:connector-curvature="0" />
    <path
       style="fill:#000000;stroke:#000000;stroke-width:0.26458332px;stroke-linecap:butt;stroke-linejoin:miter;stroke-opacity:1;fill-opacity:1"
       d="m 41.388392,266.38391 c 0,0 -3.023809,6.04762 -1.322917,9.44941 1.700893,3.40178 3.401785,5.85863 5.669643,5.85863 2.267857,0 4.724704,0.56696 4.157739,-2.07887 -0.566965,-2.64583 -3.590774,-7.18155 -3.590774,-7.18155 z"
       id="path8861"
       inkscape:connector-curvature="0" />
    <path
       style="fill:#000000;stroke:#000000;stroke-width:0.26458332px;stroke-linecap:butt;stroke-linejoin:miter;stroke-opacity:1;fill-opacity:1"
       d="m 78.619047,265.061 c 14.552084,4.91369 17.764879,5.66964 18.70982,8.69345 0.944941,3.02381 4.535713,6.23661 1.511906,7.18155 -3.023809,0.94494 -3.779763,7.74851 -11.90625,-3.96875 -8.126489,-11.71726 -8.693451,-11.1503 -8.693451,-11.1503 z"
       id="path8863"
       inkscape:connector-curvature="0" />
  </g>
</svg>
