<?xml version="1.0" encoding="UTF-8" standalone="no"?>
<!-- Created with Inkscape (http://www.inkscape.org/) -->

<svg
   xmlns:dc="http://purl.org/dc/elements/1.1/"
   xmlns:cc="http://creativecommons.org/ns#"
   xmlns:rdf="http://www.w3.org/1999/02/22-rdf-syntax-ns#"
   xmlns:svg="http://www.w3.org/2000/svg"
   xmlns="http://www.w3.org/2000/svg"
   xmlns:sodipodi="http://sodipodi.sourceforge.net/DTD/sodipodi-0.dtd"
   xmlns:inkscape="http://www.inkscape.org/namespaces/inkscape"
   width="512"
   height="512"
   viewBox="0 0 135.46666 135.46667"
   version="1.1"
   id="svg8241"
   inkscape:version="0.92.4 (5da689c313, 2019-01-14)"
   sodipodi:docname="U+69AE.svgbg.svg">
  <defs
     id="defs8235" />
  <sodipodi:namedview
     id="base"
     pagecolor="#ffffff"
     bordercolor="#666666"
     borderopacity="1.0"
     inkscape:pageopacity="0.0"
     inkscape:pageshadow="2"
     inkscape:zoom="1.979899"
     inkscape:cx="327.55508"
     inkscape:cy="341.34975"
     inkscape:document-units="mm"
     inkscape:current-layer="layer1"
     showgrid="false"
     units="px"
     inkscape:window-width="1920"
     inkscape:window-height="1017"
     inkscape:window-x="-8"
     inkscape:window-y="-8"
     inkscape:window-maximized="1" />
  <metadata
     id="metadata8238">
    <rdf:RDF>
      <cc:Work
         rdf:about="">
        <dc:format>image/svg+xml</dc:format>
        <dc:type
           rdf:resource="http://purl.org/dc/dcmitype/StillImage" />
        <dc:title></dc:title>
      </cc:Work>
    </rdf:RDF>
  </metadata>
  <g
     inkscape:label="圖層 1"
     inkscape:groupmode="layer"
     id="layer1"
     transform="translate(0,-161.53332)">
    <path
       style="fill:#000000;stroke:#000000;stroke-width:0.26458332px;stroke-linecap:butt;stroke-linejoin:miter;stroke-opacity:1;fill-opacity:1"
       d="m 56.126599,188.62219 c -21.381561,20.98066 -24.054255,9.2208 -24.054255,9.2208 0,0 -5.746296,15.50163 9.354433,7.21628 0,0 13.497107,-9.75534 14.699822,-16.43708 z"
       id="path8254"
       inkscape:connector-curvature="0" />
    <path
       style="fill:#000000;stroke:#000000;stroke-width:0.26458332px;stroke-linecap:butt;stroke-linejoin:miter;stroke-opacity:1;fill-opacity:1"
       d="m 40.491333,182.20772 c 1.603618,5.7463 4.543581,5.7463 5.211757,8.28536 0.668173,2.53906 3.207234,7.75081 0.133633,17.37252 -3.073598,9.6217 -1.737251,12.96257 -7.082642,17.50615 -5.34539,4.54358 -10.958052,6.41447 -10.958052,6.41447 l 0.267272,3.74177 9.621702,-5.34539 c 0,0 9.354434,-5.87993 9.087165,-7.75081 -0.267272,-1.87089 8.686257,5.21175 10.423509,2.40542 1.737254,-2.80633 -1.603616,-7.48354 -1.603616,-7.48354 l -1.069078,-3.74178 -5.87993,2.40543 3.340869,-25.25697 4.409948,2.80633 c 0,0 6.949009,-0.93544 3.340868,-2.93996 -3.608139,-2.00453 -6.815373,-0.93545 -6.815373,-0.93545 0,0 -9.755336,-8.41899 -9.888972,-9.2208 -0.133635,-0.80181 -2.53906,1.73725 -2.53906,1.73725 z"
       id="path8256"
       inkscape:connector-curvature="0" />
    <path
       style="fill:#000000;stroke:#000000;stroke-width:0.26458332px;stroke-linecap:butt;stroke-linejoin:miter;stroke-opacity:1;fill-opacity:1"
       d="m 62.140165,202.38657 c 2.939963,10.69078 4.81085,13.63075 8.552625,6.94901 3.741771,-6.68174 3.875407,-12.16076 3.875407,-12.16076 0,0 -0.668173,4.40994 -12.428032,5.21175 z"
       id="path8258"
       inkscape:connector-curvature="0" />
    <path
       style="fill:none;stroke:#000000;stroke-width:0.26458332px;stroke-linecap:butt;stroke-linejoin:miter;stroke-opacity:1"
       d="m 69.89098,170.5815 c 2.80633,-1.46998 2.80633,-1.46998 2.80633,-1.46998 0,0 0.133636,-0.53454 0.801809,0 0.668174,0.53454 0.668174,0.53454 0.668174,0.53454 l 1.069078,1.06907"
       id="path8260"
       inkscape:connector-curvature="0" />
    <path
       style="fill:#000000;stroke:#000000;stroke-width:0.26458332px;stroke-linecap:butt;stroke-linejoin:miter;stroke-opacity:1;fill-opacity:1"
       d="m 75.236371,170.71513 c 0,0 1.870887,2.40543 2.004523,12.69531 0.133633,10.28987 3.207234,25.3906 -4.142679,33.14142 -7.349911,7.75081 -10.289876,8.01808 -10.289876,8.01808 0,0 3.875407,4.00905 7.082641,1.73726 3.207235,-2.2718 11.759859,-18.97614 11.49259,-21.5152 -0.267269,-2.53906 -1.737251,-2.27179 -0.668173,-2.80633 1.069078,-0.53454 1.870887,1.60362 9.755338,-1.06908 7.884451,-2.6727 10.423515,-3.0736 9.888975,-5.61266 -0.534542,-2.53906 -5.746299,-8.95353 -6.949012,-7.61718 -1.202712,1.33635 1.870887,2.40542 -0.133634,4.40995 -2.004523,2.00452 -10.69078,7.61718 -11.091685,6.949 -0.400904,-0.66817 1.069078,-9.22079 1.336347,-17.90705 0.267269,-8.68626 3.608139,-9.08717 -2.53906,-13.36348 -6.1472,-4.27631 -8.686258,-8.68626 -9.888972,-2.93996 -1.202714,5.74629 -1.202714,5.74629 -1.202714,5.74629"
       id="path8262"
       inkscape:connector-curvature="0" />
    <path
       style="fill:#000000;stroke:#000000;stroke-width:0.26458332px;stroke-linecap:butt;stroke-linejoin:miter;stroke-opacity:1;fill-opacity:1"
       d="m 83.254457,212.27554 c 12.962573,4.81086 15.635267,5.87994 13.630746,9.75534 -2.004523,3.87541 -6.013564,3.47451 -6.949008,3.0736 -0.935443,-0.4009 -6.681738,-12.82894 -6.681738,-12.82894 z"
       id="path8264"
       inkscape:connector-curvature="0" />
    <path
       style="fill:#000000;stroke:#000000;stroke-width:0.26458332px;stroke-linecap:butt;stroke-linejoin:miter;stroke-opacity:1;fill-opacity:1"
       d="m 11.358955,234.19165 c 3.741773,11.09168 4.543582,8.41899 3.741773,11.09168 -0.801808,2.6727 -3.875408,14.03165 -3.875408,14.03165 l -4.5435818,2.80633 2.6726951,5.61266 3.0735997,2.6727 3.741773,-1.60362 c 0,0 1.336348,-1.87089 1.603617,-2.93996 0.26727,-1.06908 1.870887,-12.82894 1.870887,-12.82894 l 1.202713,-10.15624 c 0,0 0,-3.87541 -2.271791,-5.34539 -2.271791,-1.46999 -7.216277,-3.34087 -7.216277,-3.34087 z"
       id="path8266"
       inkscape:connector-curvature="0" />
    <path
       style="fill:#000000;stroke:#000000;stroke-width:0.26458332px;stroke-linecap:butt;stroke-linejoin:miter;stroke-opacity:1;fill-opacity:1"
       d="m 22.45064,238.73523 c 50.914843,-8.55263 45.302184,-8.55263 51.58302,-8.68626 6.280832,-0.13364 16.704344,-0.26727 16.704344,-0.26727 l 11.626226,-1.60362 10.55714,-3.20723 7.75082,2.67269 4.27631,2.6727 4.00904,2.93996 c 0,0 0.80181,0.40091 0.53454,1.73726 -0.26726,1.33634 -5.87993,5.47902 -5.87993,5.47902 l -4.67721,3.60814 -6.01357,-1.33635 c 0,0 5.61266,-6.68174 4.54358,-7.61718 -1.06907,-0.93544 -0.4009,-2.6727 -6.41446,-3.34087 -6.01357,-0.66817 -44.099475,1.87089 -44.099475,1.87089 l -29.399648,7.34991 c 0,0 -8.418988,3.20723 -10.824416,3.34087 -2.405424,0.13363 -4.276311,-5.61266 -4.276311,-5.61266 z"
       id="path8268"
       inkscape:connector-curvature="0" />
    <path
       style="fill:#000000;stroke:#000000;stroke-width:0.26458332px;stroke-linecap:butt;stroke-linejoin:miter;stroke-opacity:1;fill-opacity:1"
       d="m 39.823159,264.66037 c -2.00452,11.09169 -0.668173,12.96257 0,14.16529 0.668174,1.20271 2.80633,2.67269 5.345391,1.60361 2.53906,-1.06907 5.746294,-4.54358 4.409948,-6.1472 -1.33635,-1.60361 -9.755339,-9.6217 -9.755339,-9.6217 z"
       id="path8270"
       inkscape:connector-curvature="0" />
    <path
       style="fill:#000000;stroke:#000000;stroke-width:0.26458332px;stroke-linecap:butt;stroke-linejoin:miter;stroke-opacity:1;fill-opacity:1"
       d="m 82.853553,264.52674 c 7.216277,10.42351 10.022607,11.89349 11.893494,9.75533 1.870887,-2.13815 4.81085,-4.14267 0.133633,-6.68173 -4.677217,-2.53906 -12.027127,-3.0736 -12.027127,-3.0736 z"
       id="path8272"
       inkscape:connector-curvature="0" />
    <path
       style="fill:#000000;stroke:#000000;stroke-width:0.26458332px;stroke-linecap:butt;stroke-linejoin:miter;stroke-opacity:1;fill-opacity:1"
       d="m 43.965836,247.95603 c 3.207234,3.20723 1.870887,2.80633 3.207234,3.20723 1.336349,0.40091 11.091688,-3.0736 11.091688,-3.0736 0,0 7.082641,-0.80181 3.340867,-2.80633 -3.741772,-2.00452 -2.80633,-4.81085 -2.80633,-4.81085 0,0 -0.668173,-1.73725 3.474503,-1.20271 4.142679,0.53454 10.557148,2.80633 10.557148,2.80633 l 5.211754,0.53454 5.746295,0.8018 1.33635,3.60814 c 0,0 1.336347,1.06908 -3.207235,2.00453 -4.543583,0.93544 -12.561667,4.67721 -12.561667,4.67721 0,0 3.073598,21.9161 2.00452,26.72695 -1.069078,4.81086 0.400905,11.8935 -4.677217,10.28988 -5.078121,-1.60362 -5.479026,-5.34539 -8.819893,-9.2208 -3.34087,-3.87541 -3.474506,-3.60814 -3.474506,-3.60814 0,0 5.879931,1.73725 7.483547,-0.13363 1.603618,-1.87089 2.405427,-20.84702 2.405427,-20.84702 0,0 -10.958052,3.20723 -12.02713,3.60814 -1.069078,0.4009 -6.681737,-1.20272 -9.488066,-5.47903 -2.80633,-4.27631 0.400904,-6.5481 0.400904,-6.5481 z"
       id="path8274"
       inkscape:connector-curvature="0" />
  </g>
</svg>
