<?xml version="1.0" encoding="UTF-8" standalone="no"?>
<!-- Created with Inkscape (http://www.inkscape.org/) -->

<svg
   xmlns:dc="http://purl.org/dc/elements/1.1/"
   xmlns:cc="http://creativecommons.org/ns#"
   xmlns:rdf="http://www.w3.org/1999/02/22-rdf-syntax-ns#"
   xmlns:svg="http://www.w3.org/2000/svg"
   xmlns="http://www.w3.org/2000/svg"
   xmlns:sodipodi="http://sodipodi.sourceforge.net/DTD/sodipodi-0.dtd"
   xmlns:inkscape="http://www.inkscape.org/namespaces/inkscape"
   width="512"
   height="512"
   viewBox="0 0 135.46666 135.46667"
   version="1.1"
   id="svg11150"
   inkscape:version="0.92.4 (5da689c313, 2019-01-14)"
   sodipodi:docname="U+7121.svgbg.svg">
  <defs
     id="defs11144" />
  <sodipodi:namedview
     id="base"
     pagecolor="#ffffff"
     bordercolor="#666666"
     borderopacity="1.0"
     inkscape:pageopacity="0.0"
     inkscape:pageshadow="2"
     inkscape:zoom="1.979899"
     inkscape:cx="276.50798"
     inkscape:cy="262.48202"
     inkscape:document-units="mm"
     inkscape:current-layer="layer1"
     showgrid="false"
     units="px"
     inkscape:showpageshadow="false"
     inkscape:window-width="1920"
     inkscape:window-height="1017"
     inkscape:window-x="-8"
     inkscape:window-y="-8"
     inkscape:window-maximized="1" />
  <metadata
     id="metadata11147">
    <rdf:RDF>
      <cc:Work
         rdf:about="">
        <dc:format>image/svg+xml</dc:format>
        <dc:type
           rdf:resource="http://purl.org/dc/dcmitype/StillImage" />
        <dc:title></dc:title>
      </cc:Work>
    </rdf:RDF>
  </metadata>
  <g
     inkscape:label="圖層 1"
     inkscape:groupmode="layer"
     id="layer1"
     transform="translate(0,-161.53332)">
    <path
       style="fill:#000000;stroke:#000000;stroke-width:0.26458332px;stroke-linecap:butt;stroke-linejoin:miter;stroke-opacity:1;fill-opacity:1"
       d="m 48.242148,177.66414 c 2.939965,1.60362 3.474506,1.33635 1.603618,5.7463 -1.870887,4.40994 -1.870887,8.28535 -7.349913,12.42803 -5.479023,4.14268 -7.082642,3.0736 -7.082642,3.0736 l -1.603615,4.67722 2.806329,1.46998 c 0,0 0.935442,0.93544 4.142677,-1.46998 3.207234,-2.40543 11.893494,-7.61718 13.096208,-11.35896 1.202711,-3.74177 4.81085,-9.08716 4.81085,-9.08716 l -4.543581,-5.7463 -3.875408,-1.73725 z"
       id="path11163"
       inkscape:connector-curvature="0" />
    <path
       style="fill:#000000;stroke:#000000;stroke-width:0.26458332px;stroke-linecap:butt;stroke-linejoin:miter;stroke-opacity:1;fill-opacity:1"
       d="m 60.402914,193.43304 c 0,0 1.603615,2.6727 3.875407,2.40543 2.27179,-0.26727 19.510674,-4.14268 19.510674,-4.14268 l 2.672697,-0.13363 h 1.603615 c 0,0 -0.668173,-1.87089 1.737254,-3.47451 2.405425,-1.60361 4.409946,-0.4009 4.409946,-0.4009 l 4.009043,2.67269 1.737252,2.40543 -4.142677,2.93997 -5.87993,4.00904 -4.009044,1.46998 1.737254,2.93997 c 0,0 4.142677,2.53906 3.207234,7.75081 -0.935444,5.21176 -5.87993,26.99422 -5.87993,26.99422 l -5.078122,9.35444 -12.428032,11.22532 14.165284,-0.93545 18.441601,6.41447 2.13815,5.21176 -2.939962,2.13815 -5.87993,0.40091 c 0,0 -0.400902,-2.40543 -14.699824,-4.14268 -14.29892,-1.73725 -28.063298,-0.93544 -33.275056,0.53454 -5.211754,1.46998 -14.165283,-1.06908 -14.165283,-1.06908 0,0 5.479026,-4.67721 10.289876,-6.28083 4.810852,-1.60362 14.833459,-2.40543 14.833459,-2.40543 0,0 11.091685,-4.27631 15.234362,-9.35443 4.142679,-5.07812 6.147199,-8.8199 6.147199,-8.8199 l 4.409948,-17.23888 3.073599,-11.62623 -5.746295,-4.40994 -0.133633,-3.74177 -0.133636,-4.94449 1.469983,-2.80633 4.81085,-1.20271 1.336349,-1.73726 -10.69078,2.40543 -3.875411,2.53906 c 0,0 -8.018084,2.27179 -12.027127,-0.4009 -4.009043,-2.6727 -2.00452,-5.87993 -2.00452,-5.87993 z"
       id="path11165"
       inkscape:connector-curvature="0" />
    <path
       style="fill:#000000;stroke:#000000;stroke-width:0.26458332px;stroke-linecap:butt;stroke-linejoin:miter;stroke-opacity:1;fill-opacity:1"
       d="m 32.874151,229.24716 c 0,0 3.741774,4.54358 7.483546,4.14268 3.741775,-0.4009 21.247928,-6.68174 21.247928,-6.68174 l 17.105249,-5.34539 3.34087,-0.4009 2.53906,-5.3454 -3.741772,-1.73725 z"
       id="path11167"
       inkscape:connector-curvature="0" />
    <path
       style="fill:#000000;stroke:#000000;stroke-width:0.26458332px;stroke-linecap:butt;stroke-linejoin:miter;stroke-opacity:1;fill-opacity:1"
       d="m -3.3408691,255.03867 c 0,0.66817 7.3499119,7.88445 7.3499119,7.88445 l 24.9897002,-11.49259 68.688269,-11.75986 31.537808,10.82442 9.88897,-1.60362 -0.40091,-6.81537 -17.77342,-7.48355 -81.650841,8.81989 -37.2840976,9.62171 z"
       id="path11169"
       inkscape:connector-curvature="0" />
    <path
       style="fill:#000000;stroke:#000000;stroke-width:0.26458332px;stroke-linecap:butt;stroke-linejoin:miter;stroke-opacity:1;fill-opacity:1"
       d="m 33.141422,215.08187 c 0,0 1.202711,-3.07359 4.543581,8.28536 3.34087,11.35896 4.276312,24.9897 4.276312,24.9897 l 2.672697,2.6727 1.603616,-4.14268 c 0,0 -0.534538,-18.97614 -3.073599,-23.11882 -2.53906,-4.14267 -2.939965,-7.48354 -3.207234,-8.01808 -0.267271,-0.53454 -2.405428,-4.40995 -2.405428,-4.40995 z"
       id="path11171"
       inkscape:connector-curvature="0" />
    <path
       style="fill:#000000;stroke:#000000;stroke-width:0.26458332px;stroke-linecap:butt;stroke-linejoin:miter;stroke-opacity:1;fill-opacity:1"
       d="m 45.302185,207.4647 c 0,0 9.621703,7.48354 10.022607,15.90253 0.400905,8.41899 -1.603618,17.90706 -1.603618,17.90706 l 0.935445,8.95353 3.608139,-1.20271 1.870884,-10.69078 -1.469982,-14.83346 c 0,0 0,-9.48807 0,-10.02261 0,-0.53454 -1.469983,-5.07812 -4.543581,-6.1472 -3.073599,-1.06908 -6.1472,-3.20723 -6.1472,-3.20723 z"
       id="path11173"
       inkscape:connector-curvature="0" />
    <path
       style="fill:#000000;stroke:#000000;stroke-width:0.26458332px;stroke-linecap:butt;stroke-linejoin:miter;stroke-opacity:1;fill-opacity:1"
       d="m 63.342876,206.52925 c 0,0 5.612662,3.60814 5.479026,5.07812 -0.133635,1.46998 -2.405425,19.64431 -2.405425,19.64431 l -2.806329,8.68626 1.336347,0.93545 3.207234,-2.53906 c 0,0 3.34087,-13.63075 3.474503,-14.5662 0.133636,-0.93544 2.138156,-12.6953 2.138156,-12.6953 0,0 1.069078,-2.53906 -3.608139,-4.67721 -4.677217,-2.13816 -4.677217,-2.13816 -4.677217,-2.13816 z"
       id="path11175"
       inkscape:connector-curvature="0" />
  </g>
</svg>
