<?xml version="1.0" encoding="UTF-8" standalone="no"?>
<!-- Created with Inkscape (http://www.inkscape.org/) -->

<svg
   xmlns:dc="http://purl.org/dc/elements/1.1/"
   xmlns:cc="http://creativecommons.org/ns#"
   xmlns:rdf="http://www.w3.org/1999/02/22-rdf-syntax-ns#"
   xmlns:svg="http://www.w3.org/2000/svg"
   xmlns="http://www.w3.org/2000/svg"
   xmlns:sodipodi="http://sodipodi.sourceforge.net/DTD/sodipodi-0.dtd"
   xmlns:inkscape="http://www.inkscape.org/namespaces/inkscape"
   width="512pt"
   height="512pt"
   viewBox="0 0 180.62222 180.62222"
   version="1.1"
   id="svg899"
   inkscape:version="0.92.4 (5da689c313, 2019-01-14)"
   sodipodi:docname="U+8AA0.svgbg.svg">
  <defs
     id="defs893" />
  <sodipodi:namedview
     id="base"
     pagecolor="#ffffff"
     bordercolor="#666666"
     borderopacity="1.0"
     inkscape:pageopacity="0.0"
     inkscape:pageshadow="2"
     inkscape:zoom="1.4"
     inkscape:cx="417.72772"
     inkscape:cy="396.68475"
     inkscape:document-units="mm"
     inkscape:current-layer="layer1-2"
     showgrid="false"
     units="pt"
     inkscape:window-width="1920"
     inkscape:window-height="1017"
     inkscape:window-x="-8"
     inkscape:window-y="-8"
     inkscape:window-maximized="1" />
  <metadata
     id="metadata896">
    <rdf:RDF>
      <cc:Work
         rdf:about="">
        <dc:format>image/svg+xml</dc:format>
        <dc:type
           rdf:resource="http://purl.org/dc/dcmitype/StillImage" />
        <dc:title></dc:title>
      </cc:Work>
    </rdf:RDF>
  </metadata>
  <g
     inkscape:label="圖層 1"
     inkscape:groupmode="layer"
     id="layer1"
     transform="translate(0,-116.37774)">
    <g
       id="layer1-2"
       inkscape:label="圖層 1"
       transform="translate(-0.18859117,-1.4737473)">
      <path
         inkscape:connector-curvature="0"
         id="path912-5"
         d="m 40.090428,147.86357 c 28.597839,1.33635 19.777945,9.6217 19.777945,9.6217 0,0 -0.267268,-0.26726 0,0"
         style="fill:#000000;fill-opacity:1;stroke:#000000;stroke-width:0.26458332px;stroke-linecap:butt;stroke-linejoin:miter;stroke-opacity:1" />
      <path
         inkscape:connector-curvature="0"
         id="path914-2"
         d="m 59.868373,157.48527 c 8.285356,-1.33634 8.285356,-1.33634 8.285356,-1.33634 7.750817,3.4745 7.750817,3.4745 7.750817,3.4745 -4.009043,6.1472 -4.009043,6.1472 -4.009043,6.1472 -10.958051,-2.40543 -10.958051,-2.40543 -10.958051,-2.40543 -43.297663,13.09621 -43.297663,13.09621 -43.297663,13.09621 -7.7508165,6.41447 -7.7508165,6.41447 -7.7508165,6.41447 -5.078121,-1.33635 -5.078121,-1.33635 -5.078121,-1.33635 C 0.53453906,168.17606 0.53453906,168.17606 0.53453906,168.17606 12.027129,172.98691 12.027129,172.98691 12.027129,172.98691 49.444863,162.29613 49.444863,162.02886 49.444863,162.02886 40.090428,147.86357 40.090428,147.86357 40.090428,147.86357"
         style="fill:#000000;fill-opacity:1;stroke:#000000;stroke-width:0.26458332px;stroke-linecap:butt;stroke-linejoin:miter;stroke-opacity:1" />
      <path
         inkscape:connector-curvature="0"
         id="path916-9"
         d="m 32.072344,190.35942 c 6.681737,9.35444 9.888971,9.88898 9.888971,9.88898 l 8.285356,-8.8199 3.207234,-4.81085 -8.285355,-2.40542 z"
         style="fill:#000000;fill-opacity:1;stroke:#000000;stroke-width:0.26458332px;stroke-linecap:butt;stroke-linejoin:miter;stroke-opacity:1" />
      <path
         inkscape:connector-curvature="0"
         id="path918-0"
         d="m 24.588796,211.74099 c 6.681739,9.08716 7.216277,9.88897 7.216277,9.88897 l 14.165286,-8.28536 9.621702,-4.54358 -0.801809,-4.81085 -8.018084,0.80181 -14.432555,7.21628 z"
         style="fill:#000000;fill-opacity:1;stroke:#000000;stroke-width:0.26458332px;stroke-linecap:butt;stroke-linejoin:miter;stroke-opacity:1" />
      <path
         inkscape:connector-curvature="0"
         id="path932-7"
         d="m 122.94398,151.07081 c 16.83798,14.16528 12.82894,13.89801 12.82894,13.89801 l 6.68174,0.26727 -0.26727,-6.41447 c 0,0 -0.80181,-6.41447 -19.24341,-7.75081 z"
         style="fill:#000000;fill-opacity:1;stroke:#000000;stroke-width:0.26458332px;stroke-linecap:butt;stroke-linejoin:miter;stroke-opacity:1" />
      <path
         inkscape:connector-curvature="0"
         id="path1492-0"
         d="m 18.520833,231.98806 c 11.528274,13.41816 17.953868,27.97024 17.953868,27.97024 l 1.511906,13.04018 4.913691,3.77976 2.078868,-5.48066 -11.339285,-30.23809 -2.456846,-7.37054 -10.961309,-5.85863 z"
         style="fill:#000000;fill-opacity:1;stroke:#000000;stroke-width:0.26458332px;stroke-linecap:butt;stroke-linejoin:miter;stroke-opacity:1" />
      <path
         inkscape:connector-curvature="0"
         id="path1494-6"
         d="m 31.183035,233.68895 c 22.678572,-7.18154 17.197916,-8.69345 22.678572,-7.55952 5.480653,1.13393 0,8.50446 0,8.50446 l -20.032739,6.23661 z"
         style="fill:#000000;fill-opacity:1;stroke:#000000;stroke-width:0.26458332px;stroke-linecap:butt;stroke-linejoin:miter;stroke-opacity:1" />
      <path
         inkscape:connector-curvature="0"
         id="path1496-4"
         d="m 38.175594,252.58776 c 13.796131,-5.48065 24.190478,-4.91369 24.190478,-4.91369 l 4.535712,3.40179 0.755954,5.10268 -5.291666,2.64583 -7.181549,-0.75595 -8.504464,2.07887 -4.157737,1.32291 -0.944941,0.75596 z"
         style="fill:#000000;fill-opacity:1;stroke:#000000;stroke-width:0.26458332px;stroke-linecap:butt;stroke-linejoin:miter;stroke-opacity:1" />
      <path
         inkscape:connector-curvature="0"
         id="path1498-2"
         d="m 53.861607,234.63389 c -1.700893,13.60715 -1.889882,13.79614 -1.889882,13.79614 l 10.394347,-0.75596 2.078868,-11.33928 6.614583,-5.10268 -2.834822,-5.48066 -3.779761,-2.45684 -3.212798,-5.48066 -4.535715,2.83483 -3.212796,5.29166 2.83482,1.32292 z"
         style="fill:#000000;fill-opacity:1;stroke:#000000;stroke-width:0.26458332px;stroke-linecap:butt;stroke-linejoin:miter;stroke-opacity:1" />
      <path
         inkscape:connector-curvature="0"
         id="path1502-7"
         d="m 93.171131,189.84372 c 9.827379,11.90625 10.394339,12.6622 10.394339,12.6622 l 34.9628,-24.19048 -0.37797,-3.77976 z"
         style="fill:#000000;fill-opacity:1;stroke:#000000;stroke-width:0.26458332px;stroke-linecap:butt;stroke-linejoin:miter;stroke-opacity:1" />
      <path
         inkscape:connector-curvature="0"
         id="path1504-4"
         d="m 108.85714,184.55205 c 6.4256,-1.51191 6.80357,-1.32292 6.80357,-1.32292 l -6.42559,-34.96279 1.70089,-7.55953 -8.88244,-13.79613 -7.370536,0.18899 -0.377976,10.77232 z"
         style="fill:#000000;fill-opacity:1;stroke:#000000;stroke-width:0.26458332px;stroke-linecap:butt;stroke-linejoin:miter;stroke-opacity:1" />
      <path
         inkscape:connector-curvature="0"
         id="path1506-1"
         d="m 113.95982,196.08032 c 4.7247,-3.59077 -2.45685,0.56697 1.32292,-1.70089 3.77976,-2.26786 3.59077,3.02381 3.59077,3.02381 l 3.40179,5.66964 7.18154,4.53572 v 9.26041 L 127,219.51485 l -13.60714,-1.88988 -8.88244,8.50446 -8.31548,3.2128 -6.803573,-4.91369 2.456847,-6.04762 14.741066,-6.04762 8.12649,-3.96875 0.94494,-6.04762 z"
         style="fill:#000000;fill-opacity:1;stroke:#000000;stroke-width:0.26458332px;stroke-linecap:butt;stroke-linejoin:miter;stroke-opacity:1" />
      <path
         inkscape:connector-curvature="0"
         id="path1508-4"
         d="m 71.059523,185.87497 c 17.575893,7.37053 21.733632,13.79613 21.733632,13.79613 l -0.944941,18.70982 -2.456847,6.04762 v 0 c 0,0 0,0 0,0 v 0 0 l 1.511906,3.59077 c 0,0 -4.346726,29.10417 -11.528274,31.93899 -7.181548,2.83482 10.772322,-6.99256 -0.377976,0.37798 -11.150298,7.37053 -12.284225,5.66964 -12.284225,5.66964 l 13.418153,-15.30804 5.10268,-17.19791 1.133927,-18.70983 -1.889882,-13.60714 -7.181545,-5.29166 z"
         style="fill:#000000;fill-opacity:1;stroke:#000000;stroke-width:0.26458332px;stroke-linecap:butt;stroke-linejoin:miter;stroke-opacity:1" />
      <path
         inkscape:connector-curvature="0"
         id="path1510"
         d="m 113.39286,217.62497 c 0,0 -7.74852,30.99404 -12.85119,31.93898 -5.102682,0.94494 -3.968755,-1.70089 -3.968755,-1.70089 l -1.511905,6.80357 3.401787,6.23661 c 0,0 11.150293,-7.55952 11.717263,-10.20536 0.56696,-2.64583 11.90625,-26.08035 11.90625,-26.08035 l 8.69345,13.79613 -9.4494,6.61458 -3.02381,-0.37798 c 0,0 -1.13393,8.12649 1.32291,8.88244 2.45685,0.75596 14.55209,-9.26041 14.55209,-9.26041 l 25.89136,38.36458 12.8512,11.52827 6.80357,-3.77976 -2.07887,-6.99256 v -16.25297 l -11.1503,6.99256 -28.5372,-36.66369 c 0,0 14.1741,-26.08036 6.42559,-37.79762 -7.74851,-11.71726 -0.56696,-0.75596 -0.56696,-0.75596 0,0 -6.99256,34.39584 -10.01637,32.69495 C 130.77976,229.90919 127,219.51485 127,219.51485"
         style="fill:#000000;fill-opacity:1;stroke:#000000;stroke-width:0.26458332px;stroke-linecap:butt;stroke-linejoin:miter;stroke-opacity:1" />
    </g>
  </g>
</svg>
