<?xml version="1.0" encoding="UTF-8" standalone="no"?>
<!-- Created with Inkscape (http://www.inkscape.org/) -->

<svg
   xmlns:dc="http://purl.org/dc/elements/1.1/"
   xmlns:cc="http://creativecommons.org/ns#"
   xmlns:rdf="http://www.w3.org/1999/02/22-rdf-syntax-ns#"
   xmlns:svg="http://www.w3.org/2000/svg"
   xmlns="http://www.w3.org/2000/svg"
   xmlns:sodipodi="http://sodipodi.sourceforge.net/DTD/sodipodi-0.dtd"
   xmlns:inkscape="http://www.inkscape.org/namespaces/inkscape"
   width="512"
   height="512"
   viewBox="0 0 135.46666 135.46667"
   version="1.1"
   id="svg7650"
   inkscape:version="0.92.4 (5da689c313, 2019-01-14)"
   sodipodi:docname="U+4EE4svgbg.svg">
  <defs
     id="defs7644" />
  <sodipodi:namedview
     id="base"
     pagecolor="#ffffff"
     bordercolor="#666666"
     borderopacity="1.0"
     inkscape:pageopacity="0.0"
     inkscape:pageshadow="2"
     inkscape:zoom="1.4"
     inkscape:cx="156.2924"
     inkscape:cy="297.91177"
     inkscape:document-units="mm"
     inkscape:current-layer="layer1"
     showgrid="false"
     units="px"
     inkscape:window-width="1920"
     inkscape:window-height="1017"
     inkscape:window-x="-8"
     inkscape:window-y="-8"
     inkscape:window-maximized="1" />
  <metadata
     id="metadata7647">
    <rdf:RDF>
      <cc:Work
         rdf:about="">
        <dc:format>image/svg+xml</dc:format>
        <dc:type
           rdf:resource="http://purl.org/dc/dcmitype/StillImage" />
        <dc:title></dc:title>
      </cc:Work>
    </rdf:RDF>
  </metadata>
  <g
     inkscape:label="圖層 1"
     inkscape:groupmode="layer"
     id="layer1"
     transform="translate(0,-161.53332)">
    <path
       style="fill:#000000;stroke:#000000;stroke-width:0.26458332px;stroke-linecap:butt;stroke-linejoin:miter;stroke-opacity:1;fill-opacity:1"
       d="m 55.751489,174.34671 c 12.473212,11.52828 5.669642,1.13393 12.473212,11.52828 6.803572,10.39434 19.654763,31.56101 19.654763,31.56101 0,0 15.119046,11.71726 19.465776,17.57589 4.34672,5.85863 6.61458,6.80357 8.69345,3.96875 2.07887,-2.83482 9.26042,-4.7247 9.26042,-4.7247 l 8.69345,1.5119 2.26785,-3.77976 c 0,0 -16.25297,-4.91369 -28.15922,-12.28423 C 96.19494,212.33332 82.587797,199.48213 77.296131,193.05653 72.004464,186.63094 55.751489,174.34671 55.751489,174.34671 Z"
       id="path7663"
       inkscape:connector-curvature="0" />
    <path
       style="fill:#000000;stroke:#000000;stroke-width:0.26458332px;stroke-linecap:butt;stroke-linejoin:miter;stroke-opacity:1;fill-opacity:1"
       d="m 46.680059,208.17558 c 3.96875,8.88244 10.772322,8.12649 10.772322,8.12649 l -6.992559,11.52827 10.583333,-9.4494 c 0,0 5.480653,-1.13393 6.80357,-3.40179 1.322917,-2.26785 -0.188987,-5.85863 -0.188987,-5.85863 l -10.205357,-3.96875 z"
       id="path7665"
       inkscape:connector-curvature="0" />
    <path
       style="fill:#000000;stroke:#000000;stroke-width:0.26458332px;stroke-linecap:butt;stroke-linejoin:miter;stroke-opacity:1;fill-opacity:1"
       d="m 45.924107,234.25594 c -0.755952,4.34672 9.638392,0.37797 9.638392,0.37797 l 11.717261,-4.15773 7.181548,-4.91369 c 0,0 9.449406,3.77976 8.126489,7.37053 -1.322916,3.59077 -10.205357,18.70982 -10.205357,18.70982 0,0 -7.748513,8.69345 -13.418156,10.01637 -5.669642,1.32292 -10.205357,-1.5119 -10.205357,-1.5119 0,0 -0.566963,-5.66965 2.078871,-7.37054 2.645833,-1.70089 7.74851,-1.70089 7.74851,-1.70089 l 2.834823,3.2128 c 0,0 5.480653,-4.72471 7.9375,-9.6384 2.456844,-4.91369 3.96875,-11.15029 3.96875,-11.15029 0,0 -4.346726,-2.83483 -9.07143,1.32291 -4.724702,4.15774 -18.70982,12.09524 -18.70982,12.09524 0,0 -8.693454,7.18155 -9.07143,0.56696 -0.377976,-6.61458 0.755954,-9.63839 4.913691,-11.52827 4.157739,-1.88988 4.535715,-1.70089 4.535715,-1.70089 z"
       id="path7667"
       inkscape:connector-curvature="0" />
    <path
       style="fill:#000000;stroke:#000000;stroke-width:0.26458332px;stroke-linecap:butt;stroke-linejoin:miter;stroke-opacity:1;fill-opacity:1"
       d="m 58.586308,265.24999 c -3.590774,13.60714 -2.645833,10.9613 -3.590774,13.60714 -0.944941,2.64583 1.889882,8.88244 1.889882,8.88244 0,0 1.133927,5.48065 1.133927,6.23661 0,0.75595 0.944941,2.45684 2.456847,3.21279 1.511903,0.75596 1.322917,2.07887 2.645833,0.56697 1.322917,-1.51191 1.322917,-2.07887 1.700893,-3.02381 0.377976,-0.94494 0.566965,-3.59078 0.566965,-3.59078 0,0 0.188986,-2.45684 0,-3.21279 -0.188989,-0.75596 -0.377976,-1.13393 -0.755954,-2.83482 -0.377976,-1.7009 -0.188987,-2.26786 -0.566963,-3.59078 -0.377976,-1.32292 -0.566965,-0.37797 -0.566965,-2.64583 0,-2.26786 0,-2.07887 0,-3.2128 0,-1.13393 0,-0.56696 0,-1.88988 0,-1.32292 -0.188989,-0.56696 0,-2.07887 0.188989,-1.5119 0,-0.94494 0.188989,-2.26786 0.188987,-1.32291 0.188987,-0.56696 0.188987,-1.70089 0,-1.13393 0.188989,-1.32292 -0.188987,-2.26786 -0.377978,-0.94494 -0.566965,-1.5119 -0.566965,-1.5119 0,0 0,-0.18899 -0.188989,-0.94494 -0.188986,-0.75595 -0.566962,-1.32292 -0.566962,-1.32292 l -0.755954,-0.75595"
       id="path7669"
       inkscape:connector-curvature="0" />
    <path
       style="fill:none;stroke:#000000;stroke-width:0.26458332px;stroke-linecap:butt;stroke-linejoin:miter;stroke-opacity:1"
       d="m 61.610118,260.90326 c -3.02381,4.34673 -3.02381,4.34673 -3.02381,4.34673"
       id="path7671"
       inkscape:connector-curvature="0" />
    <path
       style="fill:none;stroke:#000000;stroke-width:0.26458332px;stroke-linecap:butt;stroke-linejoin:miter;stroke-opacity:1"
       d="m 43.845239,185.11903 2.078868,0.18899"
       id="path7673"
       inkscape:connector-curvature="0" />
    <path
       style="fill:none;stroke:#000000;stroke-width:0.26458332px;stroke-linecap:butt;stroke-linejoin:miter;stroke-opacity:1"
       d="m 45.924107,185.30802 3.779761,-1.70089"
       id="path7675"
       inkscape:connector-curvature="0" />
    <path
       style="fill:#000000;stroke:#000000;stroke-width:0.26458332px;stroke-linecap:butt;stroke-linejoin:miter;stroke-opacity:1;fill-opacity:1"
       d="m 49.703868,183.60713 v 0 c 0,0 0,2.45684 -0.944941,4.7247 -0.944938,2.26786 -0.755952,2.83482 -1.889879,4.34673 -1.13393,1.5119 -1.700893,2.83482 -1.700893,2.83482 0,0 0.188987,-0.37798 -0.566965,0.94494 -0.755951,1.32292 0.566965,0.94494 -0.944941,2.45684 -1.511905,1.51191 -1.511905,1.88989 -2.456844,3.02382 -0.94494,1.13392 -0.566965,0.56696 -1.511906,2.26785 -0.94494,1.7009 -0.377975,1.88988 -1.133927,3.02381 -0.755954,1.13393 -0.944941,2.45685 -0.944941,2.45685 l -0.755954,1.13392 -0.944938,1.13393 c 0,0 -0.188989,0.37798 -1.322917,1.32292 -1.13393,0.94494 -1.13393,1.32292 -2.078871,2.07887 -0.944941,0.75595 -1.322916,1.5119 -1.889879,2.45685 -0.566965,0.94493 0.377976,0.18898 -0.944941,1.88987 -1.322916,1.7009 -0.755954,1.13393 -1.700892,2.26786 -0.944941,1.13393 -0.755954,1.32292 -2.645834,2.83482 -1.889881,1.51191 -2.267858,2.26786 -2.267858,2.26786 l -0.94494,1.32292 -1.700893,2.07887 c 0,0 -0.188988,0.18898 -1.889881,1.88988 -1.700893,1.70089 -1.511905,1.88988 -2.267857,2.26785 -0.755952,0.37798 0.94494,-0.75595 -1.511905,1.32292 -2.456845,2.07887 -1.322916,1.51191 -3.212797,2.83482 -1.8898814,1.32292 -1.8898814,1.70089 -2.6458335,3.02381 -0.7559524,1.32292 -1.1339288,1.51191 -1.1339288,1.51191 0,0 -0.5669642,-0.18899 -1.7008927,0.75595 -1.1339285,0.94494 0.1889882,0 -1.8898809,1.32292 -2.0788691,1.32291 -3.96875001,2.45684 -3.96875001,2.45684"
       id="path7677"
       inkscape:connector-curvature="0" />
    <path
       style="fill:#000000;stroke:#000000;stroke-width:0.26458332px;stroke-linecap:butt;stroke-linejoin:miter;stroke-opacity:1;fill-opacity:1"
       d="m 0.18898809,247.86308 c -0.37797618,4.15774 -0.37797618,4.34673 -0.37797618,4.34673 l 0.56696427,1.13393"
       id="path7679"
       inkscape:connector-curvature="0" />
    <path
       style="fill:#000000;stroke:#000000;stroke-width:0.26458332px;stroke-linecap:butt;stroke-linejoin:miter;stroke-opacity:1;fill-opacity:1"
       d="m 0.37797618,253.34374 c 6.04761892,-1.32292 4.72470222,-0.18899 6.61458312,-1.88989 1.8898812,-1.70089 0.7559524,0.18899 2.0788691,-2.07886 1.3229166,-2.26786 0.9449406,-1.13393 1.8898806,-3.02381 0.944941,-1.88989 -0.755952,-0.18899 1.511905,-2.45685 2.267857,-2.26786 1.322917,-1.13393 2.645833,-2.45684 1.322917,-1.32292 0.377977,-0.56697 2.267858,-2.26786 1.889881,-1.70089 0.377976,-0.75595 2.456845,-2.26786 2.078869,-1.5119 0.94494,-0.94494 2.645833,-1.88988 1.700893,-0.94494 0.755952,0.37798 2.645833,-1.32292 1.889882,-1.70089 1.700893,-0.75595 2.456844,-2.26785 0.755955,-1.51191 0.18899,-0.18899 1.322917,-2.64584 1.13393,-2.45684 0.566965,-1.13393 1.511906,-2.83482 0.944941,-1.70089 0.377976,-0.56696 1.322917,-2.26786 0.94494,-1.70089 0.377975,-0.18898 1.322916,-2.07886 0.944941,-1.88989 0.377976,-0.75596 1.700893,-3.02381 1.322916,-2.26786 10.016368,-14.55209 10.016368,-14.55209 0,0 9.638395,-16.06398 10.583333,-18.70982 0.944941,-2.64583 -3.590771,-5.10268 -3.590771,-5.10268 l -6.614584,0.37798 -1.322916,4.53571 2.078868,0.18899"
       id="path7681"
       inkscape:connector-curvature="0" />
    <path
       style="fill:#000000;stroke:#000000;stroke-width:0.26458332px;stroke-linecap:butt;stroke-linejoin:miter;stroke-opacity:1;fill-opacity:1"
       d="M 0.18898809,247.86308 C 7.7485117,243.32737 15.119047,233.311 7.7485117,243.32737 c -7.37053552,10.01637 -7.55952361,4.53571 -7.55952361,4.53571 z"
       id="path8229"
       inkscape:connector-curvature="0" />
    <path
       style="fill:#000000;stroke:#000000;stroke-width:0.26458332px;stroke-linecap:butt;stroke-linejoin:miter;stroke-opacity:1;fill-opacity:1"
       d="m 0.18898809,247.86308 c 0.18898809,5.48066 0.37797618,10.96132 0.18898809,5.48066 -0.18898809,-5.48066 -0.18898809,-5.48066 -0.18898809,-5.48066 z"
       id="path8231"
       inkscape:connector-curvature="0" />
    <path
       style="fill:#000000;stroke:#000000;stroke-width:0.26458332px;stroke-linecap:butt;stroke-linejoin:miter;stroke-opacity:1;fill-opacity:1"
       d="m 0.18898809,247.86308 c 0.18898809,5.48066 0.18898809,5.48066 0.18898809,5.48066 l 3.96874982,-3.96875 0.5669645,-2.26786 z"
       id="path8233"
       inkscape:connector-curvature="0" />
  </g>
</svg>
