<?xml version="1.0" encoding="UTF-8" standalone="no"?>
<!-- Created with Inkscape (http://www.inkscape.org/) -->

<svg
   xmlns:dc="http://purl.org/dc/elements/1.1/"
   xmlns:cc="http://creativecommons.org/ns#"
   xmlns:rdf="http://www.w3.org/1999/02/22-rdf-syntax-ns#"
   xmlns:svg="http://www.w3.org/2000/svg"
   xmlns="http://www.w3.org/2000/svg"
   xmlns:sodipodi="http://sodipodi.sourceforge.net/DTD/sodipodi-0.dtd"
   xmlns:inkscape="http://www.inkscape.org/namespaces/inkscape"
   width="512"
   height="512"
   viewBox="0 0 135.46666 135.46667"
   version="1.1"
   id="svg9992"
   inkscape:version="0.92.4 (5da689c313, 2019-01-14)"
   sodipodi:docname="U+57FA.svgbg.svg">
  <defs
     id="defs9986" />
  <sodipodi:namedview
     id="base"
     pagecolor="#ffffff"
     bordercolor="#666666"
     borderopacity="1.0"
     inkscape:pageopacity="0.0"
     inkscape:pageshadow="2"
     inkscape:zoom="1.4"
     inkscape:cx="339.27855"
     inkscape:cy="254.42682"
     inkscape:document-units="mm"
     inkscape:current-layer="layer1"
     showgrid="false"
     units="px"
     inkscape:window-width="1920"
     inkscape:window-height="1017"
     inkscape:window-x="-8"
     inkscape:window-y="-8"
     inkscape:window-maximized="1" />
  <metadata
     id="metadata9989">
    <rdf:RDF>
      <cc:Work
         rdf:about="">
        <dc:format>image/svg+xml</dc:format>
        <dc:type
           rdf:resource="http://purl.org/dc/dcmitype/StillImage" />
        <dc:title></dc:title>
      </cc:Work>
    </rdf:RDF>
  </metadata>
  <g
     inkscape:label="圖層 1"
     inkscape:groupmode="layer"
     id="layer1"
     transform="translate(0,-161.53331)">
    <path
       style="fill:#000000;stroke:#000000;stroke-width:0.26458332px;stroke-linecap:butt;stroke-linejoin:miter;stroke-opacity:1;fill-opacity:1"
       d="m 18.709821,189.84373 c 0,0 5.102679,3.40178 10.583335,3.02381 5.480653,-0.37798 28.915177,-6.61459 28.915177,-6.61459 l 13.796131,-5.66964 c 0,0 8.315476,0.75595 8.693452,2.83482 0.377975,2.07887 -2.645834,5.66964 -2.645834,5.66964 l -26.836308,2.45685 -18.520834,6.4256 c 0,0 -12.85119,3.40178 -13.418154,-2.26786 -0.566965,-5.66964 -0.566965,-5.85863 -0.566965,-5.85863 z"
       id="path10005"
       inkscape:connector-curvature="0" />
    <path
       style="fill:#000000;stroke:#000000;stroke-width:0.26458332px;stroke-linecap:butt;stroke-linejoin:miter;stroke-opacity:1;fill-opacity:1"
       d="m 33.261905,180.96129 c 0,0 6.614584,-0.94494 5.669643,23.43452 -0.944941,24.37946 -2.078871,28.15922 -2.078871,28.15922 0,0 0,2.07887 2.456847,6.4256 2.456844,4.34673 6.614583,7.9375 7.370535,1.70089 0.755951,-6.2366 -0.188987,-12.85119 -0.188987,-12.85119 l 6.614583,-4.91369 c 0,0 2.645834,-2.07887 3.023809,-3.02381 0.377976,-0.94494 -4.157739,-3.77976 -6.803572,-2.45684 -2.645833,1.32291 -3.023809,-11.90625 -3.023809,-11.90625 l 6.425594,3.02381 6.614583,-3.2128 0.188989,21.73363 h -3.590774 l 2.456847,7.37054 c 0,0 -1.511906,-3.2128 6.992559,7.55952 8.504462,10.77232 31.183034,29.48214 36.474699,33.45089 5.29167,3.96875 3.77976,6.4256 8.31548,6.23661 4.53571,-0.18899 -4.7247,-0.37798 13.79613,-3.77976 18.52083,-3.40179 18.33184,-2.64584 18.33184,-2.64584 0,0 -28.34821,-8.31547 -30.80506,-8.50446 -2.45684,-0.18899 -30.427079,-12.85119 -36.852673,-20.22173 -6.425596,-7.37053 -7.181548,-12.28422 -7.181548,-12.28422 0,0 16.819941,-3.02381 26.458333,-0.37798 9.638388,2.64583 20.788688,6.61458 20.788688,6.61458 0,0 6.61459,-0.18898 -0.75595,-4.53571 -7.37054,-4.34673 -11.33929,-5.29167 -17.76488,-4.91369 -6.425597,0.37798 -30.049108,-0.37798 -30.049108,-0.37798 0,0 -0.755951,-50.83779 2.834823,-57.64136 3.590772,-6.80358 3.779761,-6.80358 3.779761,-6.80358 l -11.90625,-2.64583 -0.188989,32.88393 -9.449403,1.32292 -2.078869,1.13392 c 0,0 -1.700895,1.51191 -1.889881,-0.94493 -0.18899,-2.45685 1.133927,-11.33929 1.133927,-11.33929 0,0 -5.669642,-10.20536 -10.205357,-8.12649 -4.535713,2.07887 -4.913689,2.45685 -4.913689,2.45685 z"
       id="path10007"
       inkscape:connector-curvature="0" />
    <path
       style="fill:#000000;stroke:#000000;stroke-width:0.26458332px;stroke-linecap:butt;stroke-linejoin:miter;stroke-opacity:1;fill-opacity:1"
       d="M -1.5119047,248.05206 C 58.397322,234.44492 58.397322,234.44492 58.397322,234.44492 l 7.181545,6.80357 -12.095236,-4.53572 -54.23958338,17.5759 -1.88988092,-3.59078 z"
       id="path10009"
       inkscape:connector-curvature="0" />
    <path
       style="fill:#000000;stroke:#000000;stroke-width:0.26458332px;stroke-linecap:butt;stroke-linejoin:miter;stroke-opacity:1;fill-opacity:1"
       d="m 44.979166,259.01337 7.370535,-0.75595 c 0,0 1.13393,-6.80358 -1.889879,-10.20536 -3.023812,-3.40179 -2.834823,-3.2128 -2.834823,-3.2128 l 5.669643,-0.56696 c 0,0 8.126489,-4.72471 6.803572,3.96875 -1.322916,8.69345 -1.322916,8.31547 -1.322916,8.31547 l 10.394344,-1.13393 3.590774,3.59078 c 0,0 0.377976,2.07887 -0.566965,2.45684 -0.944941,0.37798 -4.157737,1.13393 -14.74107,1.32292 -10.583333,0.18899 -12.473215,-3.77976 -12.473215,-3.77976 z"
       id="path10011"
       inkscape:connector-curvature="0" />
    <path
       style="fill:#000000;stroke:#000000;stroke-width:0.26458332px;stroke-linecap:butt;stroke-linejoin:miter;stroke-opacity:1;fill-opacity:1"
       d="m 39.49851,243.13837 c -11.71726,21.16666 -20.410713,28.34821 -30.6160695,35.90774 -10.2053571,7.55952 -12.4732144,11.52827 -12.4732144,11.52827 0,0 25.1354169,-12.6622 26.4583329,-14.55208 1.322917,-1.88988 14.363096,-21.54465 14.363096,-21.54465 l 5.480654,-9.4494 z"
       id="path10013"
       inkscape:connector-curvature="0" />
    <path
       style="fill:#000000;stroke:#000000;stroke-width:0.26458332px;stroke-linecap:butt;stroke-linejoin:miter;stroke-opacity:1;fill-opacity:1"
       d="m 19.087797,280.36902 c -5.669642,15.11905 -9.4494044,17.00893 -5.85863,17.95387 3.590773,0.94494 13.418155,2.83482 13.418155,2.83482 l 0.944938,3.77976 12.473215,-6.04761 15.308035,9.82738 30.994048,-10.96131 18.709822,-6.4256 c 0,0 2.83482,-7.9375 -9.449405,-10.39434 -12.284226,-2.45685 -30.61607,-6.99256 -33.072917,-10.96131 -2.456844,-3.96875 -0.566965,-5.66965 -0.566965,-5.66965 0,0 3.401788,0.75596 4.346729,2.26786 0.944938,1.51191 10.77232,7.9375 17.764879,9.07143 6.992559,1.13393 15.686013,3.96875 15.686013,3.96875 0,0 17.386906,7.18155 10.583336,11.71726 -6.80358,4.53572 -22.300599,9.26042 -23.24554,10.01637 -0.944939,0.75595 -8.882438,5.48066 -8.882438,5.48066 l -16.630954,4.34672 H 48.947916 l -6.803572,-3.96875 -3.02381,-4.15774 -7.937499,3.77977 c 0,0 -6.047619,1.88988 -7.559523,0 -1.511905,-1.88989 -8.882441,-5.66965 -8.882441,-5.66965 l -6.425595,-4.34672 6.803571,-12.47322 z"
       id="path10015"
       inkscape:connector-curvature="0" />
  </g>
</svg>
