<?xml version="1.0" encoding="UTF-8" standalone="no"?>
<!-- Created with Inkscape (http://www.inkscape.org/) -->

<svg
   xmlns:dc="http://purl.org/dc/elements/1.1/"
   xmlns:cc="http://creativecommons.org/ns#"
   xmlns:rdf="http://www.w3.org/1999/02/22-rdf-syntax-ns#"
   xmlns:svg="http://www.w3.org/2000/svg"
   xmlns="http://www.w3.org/2000/svg"
   xmlns:sodipodi="http://sodipodi.sourceforge.net/DTD/sodipodi-0.dtd"
   xmlns:inkscape="http://www.inkscape.org/namespaces/inkscape"
   width="512"
   height="512"
   viewBox="0 0 135.46666 135.46666"
   version="1.1"
   id="svg3368"
   inkscape:version="0.92.4 (5da689c313, 2019-01-14)"
   sodipodi:docname="U+5B9C.svgbg.svg">
  <defs
     id="defs3362" />
  <sodipodi:namedview
     id="base"
     pagecolor="#ffffff"
     bordercolor="#666666"
     borderopacity="1.0"
     inkscape:pageopacity="0.0"
     inkscape:pageshadow="2"
     inkscape:zoom="1.4"
     inkscape:cx="269.73593"
     inkscape:cy="228.42362"
     inkscape:document-units="mm"
     inkscape:current-layer="layer1"
     showgrid="false"
     units="px"
     inkscape:window-width="1920"
     inkscape:window-height="1017"
     inkscape:window-x="-8"
     inkscape:window-y="-8"
     inkscape:window-maximized="1" />
  <metadata
     id="metadata3365">
    <rdf:RDF>
      <cc:Work
         rdf:about="">
        <dc:format>image/svg+xml</dc:format>
        <dc:type
           rdf:resource="http://purl.org/dc/dcmitype/StillImage" />
        <dc:title></dc:title>
      </cc:Work>
    </rdf:RDF>
  </metadata>
  <g
     inkscape:label="圖層 1"
     inkscape:groupmode="layer"
     id="layer1"
     transform="translate(0,-161.53336)">
    <path
       style="fill:#000000;stroke:#000000;stroke-width:0.26458332px;stroke-linecap:butt;stroke-linejoin:miter;stroke-opacity:1;fill-opacity:1"
       d="m 27.970239,191.73366 c 0,0 -0.944941,5.10268 2.83482,6.80357 3.779763,1.70089 18.898809,-3.40179 18.898809,-3.40179 0,0 58.586312,-6.99256 59.909222,-6.2366 1.32292,0.75595 11.71727,-1.88989 4.91369,4.34672 -6.80357,6.23661 -10.58333,7.9375 -10.58333,7.9375 l -0.94494,3.59078 h 4.91369 c 0,0 25.70238,-5.10268 18.14286,-12.8512 -7.55953,-7.74851 -12.6622,-9.63839 -12.6622,-9.63839 l -2.07887,2.07887 c 0,0 -68.224706,7.55952 -71.248515,6.23661 -3.023809,-1.32292 -5.291666,3.2128 -7.559524,0.94494 -2.267857,-2.26786 -4.535712,0.18899 -4.535712,0.18899 z"
       id="path3381"
       inkscape:connector-curvature="0" />
    <path
       style="fill:#000000;stroke:#000000;stroke-width:0.26458332px;stroke-linecap:butt;stroke-linejoin:miter;stroke-opacity:1;fill-opacity:1"
       d="m 18.331845,193.62354 c 2.456845,10.96131 3.590774,11.52827 0,16.44196 -3.590774,4.91369 -5.858631,8.12649 -3.023809,10.96131 2.834821,2.83482 5.480654,5.85863 6.803571,2.83482 1.322917,-3.02381 6.80357,-14.93006 6.80357,-14.93006 0,0 0.944941,-7.9375 -4.724701,-12.09523 -5.669643,-4.15774 -5.858631,-3.2128 -5.858631,-3.2128 z"
       id="path3383"
       inkscape:connector-curvature="0" />
    <path
       style="fill:#000000;stroke:#000000;stroke-width:0.26458332px;stroke-linecap:butt;stroke-linejoin:miter;stroke-opacity:1;fill-opacity:1"
       d="m 58.019343,203.26193 c 7.181549,0.56696 22.678573,-4.91369 22.678573,-4.91369 0,0 1.511906,-3.02381 5.480655,1.13393 3.96875,4.15774 7.559522,10.01637 7.559522,10.01637 l -2.267855,2.07887 c 0,0 -1.13393,4.34672 -1.511906,23.43452 -0.377976,19.0878 0,28.72619 0,28.72619 l -1.322916,17.38691 -1.889882,1.70089 -6.425594,-33.45089 4.157736,4.53571 c 0,0 0.18899,-29.86012 0.566965,-35.34077 0.377976,-5.48066 0.755952,-12.6622 0.755952,-12.6622 0,0 0.377978,-1.32292 -5.480653,0.94493 -5.858632,2.26786 -12.473215,6.04762 -12.473215,6.04762 0,0 -2.267858,2.83482 -6.047618,-3.40178 -3.779764,-6.23661 -3.779764,-6.23661 -3.779764,-6.23661 z"
       id="path3385"
       inkscape:connector-curvature="0" />
    <path
       style="fill:#000000;stroke:#000000;stroke-width:0.26458332px;stroke-linecap:butt;stroke-linejoin:miter;stroke-opacity:1;fill-opacity:1"
       d="m 49.136905,207.79764 c 4.346726,12.28423 3.590772,4.9137 4.346726,12.28423 0.755952,7.37054 2.645833,36.4747 2.645833,36.4747 l -1.889881,7.55953 5.291666,7.74851 h 4.535715 l -0.377976,-6.80357 -2.645833,-4.53572 0.377976,-35.71875 c 0,0 4.913691,-10.01637 -3.590774,-13.79613 -8.504465,-3.77976 -8.693452,-3.2128 -8.693452,-3.2128 z"
       id="path3387"
       inkscape:connector-curvature="0" />
    <path
       style="fill:#000000;stroke:#000000;stroke-width:0.26458332px;stroke-linecap:butt;stroke-linejoin:miter;stroke-opacity:1;fill-opacity:1"
       d="m 61.421131,224.80657 c 11.150296,-2.83482 13.985118,-5.29166 15.119045,-2.07887 1.133931,3.2128 -1.133927,9.82738 -1.133927,9.82738 l -3.401785,1.32292 -4.346726,0.75595 -5.10268,-3.21279 -0.94494,0.18898 z"
       id="path3389"
       inkscape:connector-curvature="0" />
    <path
       style="fill:#000000;stroke:#000000;stroke-width:0.26458332px;stroke-linecap:butt;stroke-linejoin:miter;stroke-opacity:1;fill-opacity:1"
       d="m 61.799107,248.2411 c 10.583333,-3.40179 12.473215,-7.93751 15.497024,-3.40179 3.023809,4.53572 -3.023809,9.82738 -3.023809,9.82738 l -6.614584,0.75595 -6.425596,-3.40178 z"
       id="path3391"
       inkscape:connector-curvature="0" />
    <path
       style="fill:#000000;stroke:#000000;stroke-width:0.26458332px;stroke-linecap:butt;stroke-linejoin:miter;stroke-opacity:1;fill-opacity:1"
       d="m 6.9925593,274.88842 c 11.3392857,9.63839 10.5833337,9.4494 11.3392857,9.63839 0.755952,0.18899 11.150297,-9.07143 33.828869,-11.33928 22.67857,-2.26786 18.520833,-2.64584 24.379462,-2.26786 5.858632,0.37797 27.592264,0.94494 31.183034,3.40178 3.59078,2.45685 10.39435,6.23661 14.17411,5.85863 3.77976,-0.37797 13.22917,-0.94494 6.04762,-6.04761 -7.18155,-5.10268 -13.79613,-10.58334 -13.79613,-10.58334 l -67.090776,3.77976 z"
       id="path3393"
       inkscape:connector-curvature="0" />
  </g>
</svg>
