<?xml version="1.0" encoding="UTF-8" standalone="no"?>
<!-- Created with Inkscape (http://www.inkscape.org/) -->

<svg
   xmlns:dc="http://purl.org/dc/elements/1.1/"
   xmlns:cc="http://creativecommons.org/ns#"
   xmlns:rdf="http://www.w3.org/1999/02/22-rdf-syntax-ns#"
   xmlns:svg="http://www.w3.org/2000/svg"
   xmlns="http://www.w3.org/2000/svg"
   xmlns:sodipodi="http://sodipodi.sourceforge.net/DTD/sodipodi-0.dtd"
   xmlns:inkscape="http://www.inkscape.org/namespaces/inkscape"
   width="512"
   height="512"
   viewBox="0 0 135.46666 135.46667"
   version="1.1"
   id="svg2170"
   inkscape:version="0.92.4 (5da689c313, 2019-01-14)"
   sodipodi:docname="U+614E.svgbg.svg">
  <defs
     id="defs2164" />
  <sodipodi:namedview
     id="base"
     pagecolor="#ffffff"
     bordercolor="#666666"
     borderopacity="1.0"
     inkscape:pageopacity="0.0"
     inkscape:pageshadow="2"
     inkscape:zoom="1.4"
     inkscape:cx="43.009817"
     inkscape:cy="303.30053"
     inkscape:document-units="mm"
     inkscape:current-layer="layer1"
     showgrid="false"
     units="px"
     inkscape:window-width="1920"
     inkscape:window-height="1017"
     inkscape:window-x="-8"
     inkscape:window-y="-8"
     inkscape:window-maximized="1" />
  <metadata
     id="metadata2167">
    <rdf:RDF>
      <cc:Work
         rdf:about="">
        <dc:format>image/svg+xml</dc:format>
        <dc:type
           rdf:resource="http://purl.org/dc/dcmitype/StillImage" />
        <dc:title></dc:title>
      </cc:Work>
    </rdf:RDF>
  </metadata>
  <g
     inkscape:label="圖層 1"
     inkscape:groupmode="layer"
     id="layer1"
     transform="translate(0,-161.53331)">
    <path
       style="fill:#000000;stroke:#000000;stroke-width:0.26458332px;stroke-linecap:butt;stroke-linejoin:miter;stroke-opacity:1;fill-opacity:1"
       d="m 16.630952,177.74849 c 5.669643,-3.40179 7.181548,-1.32292 7.181548,-1.32292 l 1.133928,16.44197 c 0,0 -4.91369,9.82738 -3.96875,18.70982 0.944941,8.88244 0.566965,41.57738 0.566965,41.57738 0,0 -1.889881,18.52083 -1.133929,23.05654 0.755952,4.53572 5.102679,14.74108 5.102679,14.74108 0,0 2.834822,8.50446 -1.322917,4.91369 -4.157738,-3.59078 -9.449405,-11.52828 -9.449405,-11.52828 l 3.02381,-5.29166 0.755952,-34.39584 -0.566964,-35.52976 c 0,0 3.96875,-11.71726 3.401786,-14.93006 -0.566965,-3.2128 -4.724703,-16.44196 -4.724703,-16.44196 z"
       id="path2183"
       inkscape:connector-curvature="0" />
    <path
       style="fill:#000000;stroke:#000000;stroke-width:0.26458332px;stroke-linecap:butt;stroke-linejoin:miter;stroke-opacity:1;fill-opacity:1"
       d="m 7.7485117,223.10563 c 4.7247023,11.71726 4.9136903,4.91369 4.7247023,11.71726 -0.188988,6.80357 -2.267857,7.55953 -2.267857,7.55953 l -2.4568453,-4.72471 -2.2678569,-2.07887 c 0,0 -4.1577381,-2.45684 2.2678569,-12.47321 z"
       id="path2185"
       inkscape:connector-curvature="0" />
    <path
       style="fill:#000000;stroke:#000000;stroke-width:0.26458332px;stroke-linecap:butt;stroke-linejoin:miter;stroke-opacity:1;fill-opacity:1"
       d="m 28.72619,202.50593 c 10.394344,6.04762 14.174108,6.23661 11.150299,10.01637 -3.023812,3.77976 -12.095239,6.04762 -12.095239,6.04762 l -2.078869,-1.7009 2.645834,-5.48065 z"
       id="path2187"
       inkscape:connector-curvature="0" />
    <path
       style="fill:#000000;stroke:#000000;stroke-width:0.26458332px;stroke-linecap:butt;stroke-linejoin:miter;stroke-opacity:1;fill-opacity:1"
       d="m 55.940475,187.57587 3.023809,1.88988 14.363097,-3.02381 11.528274,-3.96875 9.449403,-6.04762 3.401785,-0.37797 2.834827,2.07886 3.21279,1.51191 2.64584,1.88988 1.70089,2.26786 -3.77976,1.70089 -3.59078,-0.56696 -1.511901,-2.45685 -2.078869,-1.70089 c 0,0 -0.377975,0.18899 -0.94494,1.88988 -0.566965,1.70089 -0.755952,1.88988 -0.755952,1.88988 l -14.930062,4.15774 -21.544642,8.69345 c 0,0 -2.078868,1.5119 -3.779761,-1.88988 -1.700892,-3.40179 -2.267857,-5.48065 -2.267857,-5.48065 z"
       id="path2189"
       inkscape:connector-curvature="0" />
    <path
       style="fill:#000000;stroke:#000000;stroke-width:0.26458332px;stroke-linecap:butt;stroke-linejoin:miter;stroke-opacity:1;fill-opacity:1"
       d="m 67.468749,173.02379 c 4.535715,6.2366 6.992559,18.70982 3.212798,25.13541 -3.779763,6.4256 -6.992559,6.4256 -6.992559,6.4256 l -3.212798,-2.64583 c 0,0 -2.456847,7.55952 -1.889882,15.30803 0.566965,7.74851 2.078869,17.3869 1.889882,23.24553 -0.188989,5.85864 -7.748513,6.23661 -7.748513,6.23661 0,0 2.645833,8.31548 6.992561,6.4256 4.346726,-1.88988 28.348213,-12.47322 28.348213,-12.47322 l 5.10268,0.37798 c 0,0 -0.566965,1.13393 -0.18899,0.75595 0.377976,-0.37797 0.18899,-0.37797 0.18899,-0.37797 l 1.700892,-6.23661 -5.669642,0.56696 -23.245538,7.18155"
       id="path2191"
       inkscape:connector-curvature="0" />
    <path
       style="fill:#000000;stroke:#000000;stroke-width:0.26458332px;stroke-linecap:butt;stroke-linejoin:miter;stroke-opacity:1;fill-opacity:1"
       d="m 68.035714,218.56992 c 10.961309,-7.18155 9.260417,-11.52828 12.662202,-8.12649 3.401785,3.40179 3.401785,3.40179 3.401785,3.40179 l -8.126487,7.74851 c 0,0 -1.889882,3.96875 -7.9375,-3.02381 z"
       id="path2197"
       inkscape:connector-curvature="0" />
    <path
       style="fill:#000000;stroke:#000000;stroke-width:0.26458332px;stroke-linecap:butt;stroke-linejoin:miter;stroke-opacity:1;fill-opacity:1"
       d="m 77.863093,200.42706 c 9.827382,-3.77976 10.961312,-6.61458 10.961312,-6.61458 l 3.96875,1.13392 4.157736,7.18155 -2.267857,3.02381 c 0,0 -4.346726,-16.63095 -1.511903,2.83482 2.834819,19.46578 3.77976,23.24554 1.133927,21.16667 -2.645833,-2.07887 -5.102677,-18.70982 -5.102677,-18.70982 l -0.377976,-5.29167 -7.370538,1.51191 -3.96875,-4.15774 z"
       id="path2199"
       inkscape:connector-curvature="0" />
    <path
       style="fill:#000000;stroke:#000000;stroke-width:0.26458332px;stroke-linecap:butt;stroke-linejoin:miter;stroke-opacity:1;fill-opacity:1"
       d="m 30.994048,267.70682 c 34.395833,-11.71726 33.072916,-13.22917 34.395833,-11.71726 1.322917,1.5119 18.142857,-3.40179 18.142857,-3.40179 l 20.410712,-1.88988 16.44197,-0.18899 c 0,0 3.59077,-0.56696 5.10267,-0.18898 1.51191,0.37797 6.61459,3.21279 6.61459,3.21279 l 2.07887,2.64584 c 0,0 1.32291,0 0.94494,1.32291 -0.37798,1.32292 -1.51191,2.64584 -1.51191,2.64584 l -5.85863,0.18898 -4.15774,-2.45684 c 0,0 2.64584,-0.37798 -4.15774,-1.88988 -6.80357,-1.51191 -48.758923,2.26786 -48.758923,2.26786 l -27.214287,11.33928 -4.724701,4.53572 z"
       id="path2201"
       inkscape:connector-curvature="0" />
    <path
       style="fill:#000000;stroke:#000000;stroke-width:0.26458332px;stroke-linecap:butt;stroke-linejoin:miter;stroke-opacity:1;fill-opacity:1"
       d="m 64.633927,252.39878 c 4.535715,9.44941 1.700895,17.76489 1.700895,17.76489 l -5.291667,10.39434 c 0,0 -8.504465,6.99256 -9.827381,5.29167 -1.322917,-1.7009 1.322916,2.64583 1.322916,2.64583 0,0 18.331844,-6.80357 18.331844,-13.60714 0,-6.80357 -0.944941,-12.47322 -0.944941,-12.47322 z"
       id="path2203"
       inkscape:connector-curvature="0" />
    <path
       style="fill:#000000;stroke:#000000;stroke-width:0.26458332px;stroke-linecap:butt;stroke-linejoin:miter;stroke-opacity:1;fill-opacity:1"
       d="m 86.556547,249.94194 c 3.212796,14.93006 5.291667,16.63095 5.291667,16.63095 l 2.83482,1.51191 v -8.12649 l -1.700893,-9.63839 c 0,0 1.511906,-3.59078 0.18899,-3.59078 -1.322917,0 -6.614584,3.2128 -6.614584,3.2128 z"
       id="path2205"
       inkscape:connector-curvature="0" />
    <path
       style="fill:#000000;stroke:#000000;stroke-width:0.26458332px;stroke-linecap:butt;stroke-linejoin:miter;stroke-opacity:1;fill-opacity:1"
       d="m 84.28869,267.51783 c 18.14286,9.07143 14.74107,4.53572 18.14286,9.26042 3.40178,4.7247 5.48065,6.42559 3.40178,9.4494 -2.07887,3.02381 -4.7247,5.48066 -7.937498,1.32292 -3.212798,-4.15774 -5.102677,-9.07143 -8.504465,-12.47321 -3.401785,-3.40179 -5.291666,-6.4256 -5.291666,-6.4256 l 0.566965,-0.37798 z"
       id="path2207"
       inkscape:connector-curvature="0" />
    <path
       style="fill:#000000;stroke:#000000;stroke-width:0.26458332px;stroke-linecap:butt;stroke-linejoin:miter;stroke-opacity:1;fill-opacity:1"
       d="m 66.712798,231.23212 c 5.291666,3.02381 8.315475,2.07887 12.85119,-1.32292 4.535713,-3.40178 4.346726,-3.40178 4.346726,-3.40178 l -4.724704,-2.45685 z"
       id="path2209"
       inkscape:connector-curvature="0" />
    <path
       style="fill:#000000;stroke:#000000;stroke-width:0.26458332px;stroke-linecap:butt;stroke-linejoin:miter;stroke-opacity:1;fill-opacity:1"
       d="m 71.437499,172.45682 6.803573,0.56697 c 0,0 6.04762,-3.59078 4.157736,6.04761 -1.889884,9.6384 -4.535715,21.35566 -4.535715,21.35566 l -7.181546,8.50446 c 0,0 -3.212798,-4.15773 -4.535715,0.56697 -1.322916,4.7247 -4.724698,16.06399 -2.456844,24.75744"
       id="path2771"
       inkscape:connector-curvature="0" />
    <path
       style="fill:none;stroke:#000000;stroke-width:0.26458332px;stroke-linecap:butt;stroke-linejoin:miter;stroke-opacity:1"
       d="m 71.437499,172.45682 c 0,0 -7.9375,1.13394 -3.96875,0.56697 3.96875,-0.56697 7.9375,-1.13394 3.96875,-0.56697"
       id="path2773"
       inkscape:connector-curvature="0" />
    <path
       style="fill:#000000;stroke:#000000;stroke-width:0.26458332px;stroke-linecap:butt;stroke-linejoin:miter;stroke-opacity:1;fill-opacity:1"
       d="m 67.468749,173.02379 c 3.96875,7.18154 3.96875,7.18154 3.96875,7.18154"
       id="path2775"
       inkscape:connector-curvature="0" />
    <path
       style="fill:none;stroke:#000000;stroke-width:0.26458332px;stroke-linecap:butt;stroke-linejoin:miter;stroke-opacity:1"
       d="m 65.956843,242.94938 c 0,0 0,0 -2.267855,-8.69345 3.02381,-22.67857 3.02381,-25.89137 3.02381,-25.89137 l 3.968749,0.56696 -6.992559,-4.34672 4.157738,-1.70089 -0.566964,4.34672"
       id="path2777"
       inkscape:connector-curvature="0" />
    <path
       style="fill:#000000;stroke:#000000;stroke-width:0.26458332px;stroke-linecap:butt;stroke-linejoin:miter;stroke-opacity:1;fill-opacity:1"
       d="m 67.468749,173.02379 c 3.96875,-0.56697 3.96875,-0.56697 3.96875,-0.56697 v 7.74851 z"
       id="path2779"
       inkscape:connector-curvature="0" />
    <path
       style="fill:none;stroke:#000000;stroke-width:0.26458332px;stroke-linecap:butt;stroke-linejoin:miter;stroke-opacity:1"
       d="m 67.27976,207.23063 c -3.590772,11.90625 -3.590772,27.0253 -3.590772,27.0253 l 2.267855,8.69345 -13.229166,3.77976 6.425596,-2.07887 1.322917,-2.45684 3.212798,-7.9375 v 0"
       id="path2781"
       inkscape:connector-curvature="0" />
    <path
       style="fill:#000000;stroke:#000000;stroke-width:0.26458332px;stroke-linecap:butt;stroke-linejoin:miter;stroke-opacity:1;fill-opacity:1"
       d="m 92.0372,230.85414 c -2.834819,4.91369 -2.834819,4.91369 -2.834819,4.91369 v 0 l 5.669642,-0.56696 -0.566965,-3.96875 z"
       id="path2783"
       inkscape:connector-curvature="0" />
  </g>
</svg>
