<?xml version="1.0" encoding="UTF-8" standalone="no"?>
<!-- Created with Inkscape (http://www.inkscape.org/) -->

<svg
   xmlns:dc="http://purl.org/dc/elements/1.1/"
   xmlns:cc="http://creativecommons.org/ns#"
   xmlns:rdf="http://www.w3.org/1999/02/22-rdf-syntax-ns#"
   xmlns:svg="http://www.w3.org/2000/svg"
   xmlns="http://www.w3.org/2000/svg"
   xmlns:sodipodi="http://sodipodi.sourceforge.net/DTD/sodipodi-0.dtd"
   xmlns:inkscape="http://www.inkscape.org/namespaces/inkscape"
   width="512"
   height="512"
   viewBox="0 0 135.46666 135.46667"
   version="1.1"
   id="svg10569"
   inkscape:version="0.92.4 (5da689c313, 2019-01-14)"
   sodipodi:docname="U+751A.svgbg.svg">
  <defs
     id="defs10563" />
  <sodipodi:namedview
     id="base"
     pagecolor="#ffffff"
     bordercolor="#666666"
     borderopacity="1.0"
     inkscape:pageopacity="0.0"
     inkscape:pageshadow="2"
     inkscape:zoom="1.979899"
     inkscape:cx="190.10448"
     inkscape:cy="330.02376"
     inkscape:document-units="mm"
     inkscape:current-layer="layer1"
     showgrid="false"
     units="px"
     inkscape:window-width="1920"
     inkscape:window-height="1017"
     inkscape:window-x="-8"
     inkscape:window-y="-8"
     inkscape:window-maximized="1" />
  <metadata
     id="metadata10566">
    <rdf:RDF>
      <cc:Work
         rdf:about="">
        <dc:format>image/svg+xml</dc:format>
        <dc:type
           rdf:resource="http://purl.org/dc/dcmitype/StillImage" />
        <dc:title></dc:title>
      </cc:Work>
    </rdf:RDF>
  </metadata>
  <g
     inkscape:label="圖層 1"
     inkscape:groupmode="layer"
     id="layer1"
     transform="translate(0,-161.53331)">
    <path
       style="fill:#000000;stroke:#000000;stroke-width:0.26458332px;stroke-linecap:butt;stroke-linejoin:miter;stroke-opacity:1;fill-opacity:1"
       d="m 9.621703,255.03866 c 4.409947,1.73725 7.349912,1.73725 4.944486,1.60362 -2.405426,-0.13364 2.271791,0.53454 2.271791,0.53454 l 53.186636,-13.22985 28.464203,-2.27179 c 0,0 -2.138156,-2.13815 1.469983,-2.00452 3.608138,0.13364 8.686258,2.40543 8.686258,2.40543 l 5.7463,2.53906 2.93996,2.53906 0.26727,2.80633 -1.20271,2.13815 -6.5481,-1.46998 -6.41447,-3.74177 c 0,0 -7.617185,-2.53906 -17.639792,-1.20271 -10.022607,1.33634 -34.745038,7.08264 -34.745038,7.08264 l -23.51972,6.28083 -9.888971,4.67722 c 0,0 -1.069078,5.34539 -4.677217,1.06908 -3.6081387,-4.27631 -6.4144688,-6.01357 -6.4144688,-6.01357 l 0.8018087,-2.80633 z"
       id="path10582"
       inkscape:connector-curvature="0" />
    <path
       style="fill:#000000;stroke:#000000;stroke-width:0.26458332px;stroke-linecap:butt;stroke-linejoin:miter;stroke-opacity:1;fill-opacity:1"
       d="m 31.404168,196.10573 c 0,0 -3.608139,2.93996 4.409948,1.60362 8.018087,-1.33635 24.321526,-6.94901 24.321526,-6.94901 l 17.773425,-6.01357 7.483546,-0.8018 c 0,0 1.737252,1.87088 1.870888,2.40542 0.133633,0.53454 0.801806,4.40995 0.801806,4.40995 l -8.418988,0.80181 c 0,0 -8.686261,0.13363 -23.252449,6.01356 -14.56619,5.87993 -15.234364,8.41899 -15.234364,8.41899 0,0 0.534541,-1.87088 0,0 -0.534537,1.87089 -1.469982,4.27631 -3.474503,2.00452 -2.004523,-2.27179 -5.479026,-9.2208 -5.479026,-9.2208 z"
       id="path10584"
       inkscape:connector-curvature="0" />
    <path
       style="fill:#000000;stroke:#000000;stroke-width:0.26458332px;stroke-linecap:butt;stroke-linejoin:miter;stroke-opacity:1;fill-opacity:1"
       d="m 44.099472,177.9314 c 0,0 -0.668174,2.93997 1.737251,4.81085 2.405425,1.87089 3.741775,10.42352 3.207234,17.77343 -0.534538,7.34991 -1.069078,8.01808 0.534541,15.7689 1.603615,7.75081 3.340867,4.94448 1.603615,15.7689 -1.737251,10.82442 -0.400904,20.71339 -0.400904,20.71339 0,0 0.267271,2.67269 1.870887,2.00452 1.603618,-0.66817 2.004523,-9.08716 2.004523,-9.08716 l -0.801809,-7.48355 v -5.21175 c 0,0 -5.34539,0.40091 0,0 7.082642,-0.13364 10.423511,-0.66818 11.893494,-1.46999 1.469982,-0.80181 3.207234,-2.13815 2.80633,0.53454 -0.400904,2.6727 -0.26727,6.01357 -0.801809,6.81537 -0.534539,0.80181 -3.340869,-0.13363 -3.340869,-0.13363 l -1.469982,1.73725 c 0,0 8.953529,12.6953 9.621703,17.10525 0.668174,4.40995 3.073599,8.95353 6.414468,9.35443 3.34087,0.40091 7.750817,3.87541 7.082643,-1.06907 -0.668174,-4.94449 -0.26727,-5.07812 -3.741773,-7.48355 -3.474504,-2.40543 -7.884452,-4.94449 -7.349912,-7.08264 0.534539,-2.13816 -5.211756,-29.80055 -1.069079,-51.31575 4.142678,-21.5152 7.750817,-27.12786 5.479026,-28.73148 -2.271791,-1.60361 -8.552625,-2.40542 -8.552625,-2.40542 l -2.271791,-0.66818 c 0,0 2.138156,2.40543 2.53906,4.67722 0.400905,2.27179 -1.603617,36.61593 -1.603617,36.61593 0,0 -0.935443,7.21627 -0.935443,8.68626 0,1.46998 -0.400904,8.15172 -0.400904,8.15172 0,0 2.138156,-2.40543 -5.479026,-1.06908 -7.617181,1.33635 -7.617181,1.33635 -7.617181,1.33635 0,0 -5.345391,8.15172 -3.0736,-15.50164 2.271791,-23.65335 3.741774,-26.72695 3.741774,-26.72695 l -9.621703,-7.61718 z"
       id="path10586"
       inkscape:connector-curvature="0" />
    <path
       style="fill:none;stroke:#000000;stroke-width:0.26458332px;stroke-linecap:butt;stroke-linejoin:miter;stroke-opacity:1"
       d="m 52.117558,207.86559 2.939965,18.70887 v 0"
       id="path10588"
       inkscape:connector-curvature="0" />
    <path
       style="fill:#000000;stroke:#000000;stroke-width:0.26458332px;stroke-linecap:butt;stroke-linejoin:miter;stroke-opacity:1;fill-opacity:1"
       d="m 56.527503,207.99922 4.810853,-5.34539 4.944486,0.93545 3.073601,2.53906 -3.34087,2.13815 -1.737252,3.47451 -0.267271,2.00452 c 0,0 0.133636,0.53454 -2.405425,0.4009 -2.539061,-0.13363 -6.949006,-5.34539 -6.949006,-5.34539 z"
       id="path10590"
       inkscape:connector-curvature="0" />
    <path
       style="fill:#000000;stroke:#000000;stroke-width:0.26458332px;stroke-linecap:butt;stroke-linejoin:miter;stroke-opacity:1;fill-opacity:1"
       d="m 27.52876,259.0477 c 0,0 5.345391,-3.74177 5.746295,6.1472 0.400905,9.88897 1.202714,17.77342 -0.133633,18.4416 -1.336349,0.66817 2.80633,2.13815 4.944486,4.94448 2.138156,2.80634 0.801809,1.46999 11.759858,-0.66817 10.95805,-2.13816 27.127856,-4.40995 33.275056,-3.4745 6.147199,0.93544 12.962572,3.20723 13.630745,1.87088 0.668174,-1.33634 2.138157,-2.80633 1.336347,-3.8754 -0.801806,-1.06908 -1.202711,-5.07812 -11.358954,-5.7463 -10.156242,-0.66817 -31.136899,3.47451 -31.136899,3.47451 l -12.828936,1.46998 -3.073601,-13.09621 0.267271,-4.14268 -0.53454,-3.8754 -4.142677,-1.46999 z"
       id="path10592"
       inkscape:connector-curvature="0" />
    <path
       style="fill:#000000;stroke:#000000;stroke-width:0.26458332px;stroke-linecap:butt;stroke-linejoin:miter;stroke-opacity:1;fill-opacity:1"
       d="m 54.255714,256.77591 0.534538,2.6727 -2.539061,8.55262 -2.00452,1.73725 1.603616,2.93997 c 0,0 3.073601,0.80181 4.944488,-1.60362 1.870885,-2.40542 8.819893,-9.35443 8.819893,-9.35443 0,0 2.672697,-2.6727 -0.668173,-3.47451 -3.34087,-0.80181 -7.483547,-3.20723 -7.483547,-3.20723 l -1.603618,-0.26727 z"
       id="path10594"
       inkscape:connector-curvature="0" />
    <path
       style="fill:#000000;stroke:#000000;stroke-width:0.26458332px;stroke-linecap:butt;stroke-linejoin:miter;stroke-opacity:1;fill-opacity:1"
       d="m 52.518463,210.53828 -1.33635,10.28988 1.469983,6.94901 2.405427,-1.20271 z"
       id="path11142"
       inkscape:connector-curvature="0" />
  </g>
</svg>
