<?xml version="1.0" encoding="UTF-8" standalone="no"?>
<!-- Created with Inkscape (http://www.inkscape.org/) -->

<svg
   xmlns:dc="http://purl.org/dc/elements/1.1/"
   xmlns:cc="http://creativecommons.org/ns#"
   xmlns:rdf="http://www.w3.org/1999/02/22-rdf-syntax-ns#"
   xmlns:svg="http://www.w3.org/2000/svg"
   xmlns="http://www.w3.org/2000/svg"
   xmlns:sodipodi="http://sodipodi.sourceforge.net/DTD/sodipodi-0.dtd"
   xmlns:inkscape="http://www.inkscape.org/namespaces/inkscape"
   width="512"
   height="512"
   viewBox="0 0 135.46667 135.46667"
   version="1.1"
   id="svg11729"
   inkscape:version="0.92.4 (5da689c313, 2019-01-14)"
   sodipodi:docname="U+7ADF.svgbg.svg">
  <defs
     id="defs11723" />
  <sodipodi:namedview
     id="base"
     pagecolor="#ffffff"
     bordercolor="#666666"
     borderopacity="1.0"
     inkscape:pageopacity="0.0"
     inkscape:pageshadow="2"
     inkscape:zoom="1.4"
     inkscape:cx="210.38242"
     inkscape:cy="297.05055"
     inkscape:document-units="mm"
     inkscape:current-layer="layer1"
     showgrid="false"
     units="px"
     inkscape:window-width="1920"
     inkscape:window-height="1017"
     inkscape:window-x="-8"
     inkscape:window-y="-8"
     inkscape:window-maximized="1" />
  <metadata
     id="metadata11726">
    <rdf:RDF>
      <cc:Work
         rdf:about="">
        <dc:format>image/svg+xml</dc:format>
        <dc:type
           rdf:resource="http://purl.org/dc/dcmitype/StillImage" />
        <dc:title></dc:title>
      </cc:Work>
    </rdf:RDF>
  </metadata>
  <g
     inkscape:label="圖層 1"
     inkscape:groupmode="layer"
     id="layer1"
     transform="translate(0,-161.53332)">
    <path
       style="fill:#000000;stroke:#000000;stroke-width:0.26458332px;stroke-linecap:butt;stroke-linejoin:miter;stroke-opacity:1;fill-opacity:1"
       d="m 29.860118,181.15028 8.126489,4.15774 41.955357,-10.58333 5.858629,-3.96875 8.126489,3.02381 v 4.7247 l -8.693451,-0.37798 -22.678573,6.23661 -18.520833,6.23661 -4.346726,2.64583 -7.370534,-1.88988 z"
       id="path11742"
       inkscape:connector-curvature="0" />
    <path
       style="fill:#000000;stroke:#000000;stroke-width:0.26458332px;stroke-linecap:butt;stroke-linejoin:miter;stroke-opacity:1;fill-opacity:1"
       d="m 52.349701,168.29909 6.047621,-1.70089 15.875,16.25298 6.047618,3.77976 -5.669643,9.07143 -3.96875,4.34672 30.238093,-3.40178 5.48066,-3.2128 9.82738,1.32292 9.63839,6.99256 -4.34673,3.21279 -21.35565,-3.59077 -41.955357,4.7247 -2.834823,4.7247 -5.858629,-1.13392 -20.788691,2.45684 -19.8437495,6.80357 -2.2678573,1.32292 -5.85863082,-7.9375 4.91369032,-3.02381 4.1577381,2.07887 38.5535702,-7.37054 -4.724702,-9.4494 c 0,0 0.377976,-3.2128 5.291667,-0.94494 4.913691,2.26785 8.882441,7.74851 8.882441,7.74851 l 4.913691,-0.75595 6.614583,-14.17411 -11.339288,-3.77976 c 0,0 3.023812,-1.51191 0,-5.29167 -3.023809,-3.77976 -8.126486,-6.2366 -8.126486,-6.2366 z"
       id="path11744"
       inkscape:connector-curvature="0" />
    <path
       style="fill:#000000;stroke:#000000;stroke-width:0.26458332px;stroke-linecap:butt;stroke-linejoin:miter;stroke-opacity:1;fill-opacity:1"
       d="m 32.69494,213.65624 c 10.394344,33.07291 15.308035,31.56101 8.882441,33.63988 -6.425596,2.07887 -14.363096,1.70089 -14.363096,1.70089 l 0.94494,5.85863 11.90625,1.70089 4.724702,-3.96875 4.535715,1.32292 1.889882,-4.15774 14.930058,-4.53571 -38.931547,35.34077 c 0,0 -2.645833,3.77976 -2.078869,-0.37798 0.566965,-4.15773 -0.377976,-4.34672 -0.377976,-4.34672 l -4.724702,6.23661 1.511905,5.48065 7.937499,-0.37798 43.65625,-47.24702 c 0,0 4.724701,-1.70089 2.645833,-2.83482 -2.078868,-1.13393 -14.174107,3.77976 -14.174107,3.77976 l -11.528275,3.2128 c 0,0 -1.511903,-13.41816 -4.157736,-16.44197 -2.645833,-3.0238 -0.944941,-6.99255 -0.944941,-6.99255 l -8.693451,-8.50447 z"
       id="path11746"
       inkscape:connector-curvature="0" />
    <path
       style="fill:#000000;stroke:#000000;stroke-width:0.26458332px;stroke-linecap:butt;stroke-linejoin:miter;stroke-opacity:1;fill-opacity:1"
       d="m 50.648809,232.55504 c 0,0 5.480655,4.34673 6.614583,3.96875 1.13393,-0.37797 8.88244,-4.91369 8.88244,-4.91369 l 6.425595,-3.02381 c 0,0 0,-1.70089 -3.590772,-2.26785 -3.590774,-0.56696 -8.693454,-0.56696 -9.260417,0.75595 -0.566965,1.32292 -9.071429,5.48065 -9.071429,5.48065 z"
       id="path11748"
       inkscape:connector-curvature="0" />
    <path
       style="fill:#000000;stroke:#000000;stroke-width:0.26458332px;stroke-linecap:butt;stroke-linejoin:miter;stroke-opacity:1;fill-opacity:1"
       d="m 47.43601,216.86903 c 0,0 -0.188986,2.07887 2.456847,3.96875 2.645833,1.88988 8.882441,0.94495 17.197916,-3.21279 8.315476,-4.15774 13.418153,-4.15774 13.418153,-4.15774 v 15.30803 l -3.96875,12.85119 -0.188986,6.4256 1.133927,4.34672 12.662204,-39.12053 -10.205357,-7.9375 z"
       id="path11750"
       inkscape:connector-curvature="0" />
    <path
       style="fill:#000000;stroke:#000000;stroke-width:0.26458332px;stroke-linecap:butt;stroke-linejoin:miter;stroke-opacity:1;fill-opacity:1"
       d="m 57.830357,260.14731 h 4.724701 c 0,0 -2.645833,20.22172 0.566965,24.19047 3.212799,3.96875 18.520833,7.74851 24.946428,7.9375 6.425596,0.18899 28.348219,-2.26785 28.348219,-2.26785 l 14.55208,-2.83483 0.37797,-3.96875 -4.15773,-4.15773 -3.02381,-1.7009 -6.4256,-9.4494 -1.32291,11.52827 c 0,0 1.70089,3.59078 -14.55209,5.29167 -16.252974,1.70089 -30.238092,2.07887 -30.61607,-6.4256 -0.377976,-8.50446 3.590774,-19.84375 3.590774,-19.84375 0,0 4.346726,-8.69345 -3.212796,-6.2366 -7.559524,2.45684 -13.796131,7.9375 -13.796131,7.9375 z"
       id="path11752"
       inkscape:connector-curvature="0" />
  </g>
</svg>
