<?xml version="1.0" encoding="UTF-8" standalone="no"?>
<!-- Created with Inkscape (http://www.inkscape.org/) -->

<svg
   xmlns:dc="http://purl.org/dc/elements/1.1/"
   xmlns:cc="http://creativecommons.org/ns#"
   xmlns:rdf="http://www.w3.org/1999/02/22-rdf-syntax-ns#"
   xmlns:svg="http://www.w3.org/2000/svg"
   xmlns="http://www.w3.org/2000/svg"
   xmlns:sodipodi="http://sodipodi.sourceforge.net/DTD/sodipodi-0.dtd"
   xmlns:inkscape="http://www.inkscape.org/namespaces/inkscape"
   width="512"
   height="512"
   viewBox="0 0 135.46666 135.46667"
   version="1.1"
   id="svg2791"
   inkscape:version="0.92.4 (5da689c313, 2019-01-14)"
   sodipodi:docname="U+7D42.svgbg.svg">
  <defs
     id="defs2785" />
  <sodipodi:namedview
     id="base"
     pagecolor="#ffffff"
     bordercolor="#666666"
     borderopacity="1.0"
     inkscape:pageopacity="0.0"
     inkscape:pageshadow="2"
     inkscape:zoom="1.979899"
     inkscape:cx="241.09244"
     inkscape:cy="274.04589"
     inkscape:document-units="mm"
     inkscape:current-layer="layer1"
     showgrid="false"
     units="px"
     inkscape:window-width="1920"
     inkscape:window-height="1017"
     inkscape:window-x="-8"
     inkscape:window-y="-8"
     inkscape:window-maximized="1" />
  <metadata
     id="metadata2788">
    <rdf:RDF>
      <cc:Work
         rdf:about="">
        <dc:format>image/svg+xml</dc:format>
        <dc:type
           rdf:resource="http://purl.org/dc/dcmitype/StillImage" />
        <dc:title></dc:title>
      </cc:Work>
    </rdf:RDF>
  </metadata>
  <g
     inkscape:label="圖層 1"
     inkscape:groupmode="layer"
     id="layer1"
     transform="translate(0,-161.53331)">
    <path
       style="fill:#000000;stroke:#000000;stroke-width:0.26458332px;stroke-linecap:butt;stroke-linejoin:miter;stroke-opacity:1;fill-opacity:1"
       d="m 55.85933,193.7003 c 16.83798,-0.66817 11.225321,7.75082 11.225321,7.75082 0,0 -0.801809,1.73725 -2.539061,2.80633 -1.737251,1.06908 -3.207234,-0.66817 -3.207234,-0.66817 0,0 -6.147199,7.21627 -0.267269,10.15624 5.879928,2.93996 10.022607,6.01356 10.022607,6.01356 0,0 -9.087165,12.6953 -11.893494,15.63527 -2.80633,2.93997 -17.773425,12.2944 -17.773425,12.2944 L 39.55589,249.426 c 0,0 15.501631,1.87089 24.321527,-9.2208 8.819893,-11.09169 11.091685,-15.63527 11.091685,-15.63527 l 3.875407,0.40091 c 0,0 14.566189,15.7689 24.455161,21.11429 9.88897,5.34539 10.28988,6.01356 10.28988,6.01356 0,0 18.4416,-10.69078 20.31248,-10.69078 1.87089,0 -22.04973,0.40091 -36.749558,-10.0226 C 82.452648,220.9618 78.176336,217.8882 78.176336,217.8882 l 4.276312,-6.41447 3.741775,-5.87993 2.53906,-1.60362 c 0,0 -3.608138,-8.95353 -6.414471,-7.61718 -2.806329,1.33635 -3.207234,5.47902 -3.207234,5.47902 l -2.405425,6.94901 -3.34087,6.28083 -5.746294,-4.00904 c 0,0 6.949008,-8.41899 7.617182,-10.69078 0.668173,-2.27179 4.543581,-6.41447 -5.211755,-8.41899 -9.755338,-2.00452 -14.165286,1.73725 -14.165286,1.73725 z"
       id="path2804"
       inkscape:connector-curvature="0" />
    <path
       style="fill:#000000;stroke:#000000;stroke-width:0.26458332px;stroke-linecap:butt;stroke-linejoin:miter;stroke-opacity:1;fill-opacity:1"
       d="m 66.683746,242.47699 c 5.746295,4.54358 11.091685,8.8199 12.294399,5.34539 1.202711,-3.4745 1.870887,-5.07812 -2.004523,-7.08264 -3.875407,-2.00452 -10.289876,1.73725 -10.289876,1.73725 z"
       id="path2806"
       inkscape:connector-curvature="0" />
    <path
       style="fill:#000000;stroke:#000000;stroke-width:0.26458332px;stroke-linecap:butt;stroke-linejoin:miter;stroke-opacity:1;fill-opacity:1"
       d="m 63.476512,257.84499 c 10.958049,11.49259 12.294399,14.43255 15.367997,12.6953 3.073601,-1.73725 6.280836,-3.60814 6.280836,-4.14268 0,-0.53453 3.207234,-1.46998 -3.741775,-4.40994 -6.949009,-2.93997 -17.907058,-4.14268 -17.907058,-4.14268 z"
       id="path2808"
       inkscape:connector-curvature="0" />
    <path
       style="fill:#000000;stroke:#000000;stroke-width:0.26458332px;stroke-linecap:butt;stroke-linejoin:miter;stroke-opacity:1;fill-opacity:1"
       d="m 26.593318,193.56667 c 0,0 5.879928,2.13816 4.543581,5.34539 -1.336347,3.20723 0.534541,6.68174 -6.013564,8.81989 -6.548103,2.13816 -6.815373,2.40543 -6.815373,2.40543 0,0 6.815373,-9.88897 5.87993,-11.49259 -0.935444,-1.60362 -2.004522,-3.4745 0,-4.40995 2.004521,-0.93544 2.405426,-0.66817 2.405426,-0.66817 z"
       id="path2810"
       inkscape:connector-curvature="0" />
    <path
       style="fill:#000000;stroke:#000000;stroke-width:0.26458332px;stroke-linecap:butt;stroke-linejoin:miter;stroke-opacity:1;fill-opacity:1"
       d="m 16.437076,212.54281 c 10.557147,4.54358 6.280833,7.21627 10.557147,4.54358 6.280833,-6.81538 6.280833,-6.81538 6.280833,-6.81538 l 3.207235,-1.33634 4.142677,4.67721 1.469983,2.40543 c 0,0 -9.888973,3.0736 -15.501633,9.35443 -5.61266,6.28084 -6.280834,6.41447 -6.280834,6.41447 l 11.759859,-0.93544 2.539061,-4.81085 4.009043,-0.93545 2.80633,2.00453 0.935443,1.60361 -0.267269,2.00452 -0.801809,2.13816 -0.534539,1.46998 c 0,0 -8.819894,12.96257 -19.377041,16.03617 -10.557146,3.0736 -10.824416,2.6727 -10.824416,2.6727 0,0 24.455162,-16.83798 18.040693,-16.16981 -6.414468,0.66818 -9.488068,5.87993 -11.893494,3.74178 -2.405425,-2.13816 -4.276312,-9.75534 -4.276312,-9.75534 0,0 1.469982,-2.93997 2.539061,-2.40543 1.069078,0.53454 7.349912,-6.81537 7.349912,-6.81537 0,0 -8.418991,0.53454 -8.819895,-2.27179 -0.400904,-2.80633 0.801809,-8.01809 1.737252,-7.75082 0.935443,0.26727 1.202713,0.93545 1.202713,0.93545 z"
       id="path2812"
       inkscape:connector-curvature="0" />
    <path
       style="fill:#000000;stroke:#000000;stroke-width:0.26458332px;stroke-linecap:butt;stroke-linejoin:miter;stroke-opacity:1;fill-opacity:1"
       d="m 9.0871639,256.64228 c 0,0 2.8063301,2.00452 6.1471991,1.73725 3.340869,-0.26727 13.229842,-1.20271 16.837981,-6.01357 3.608136,-4.81085 6.681737,-11.75986 6.681737,-11.75986 l 1.069078,-3.07359 v 7.34991 c 0,0 3.073599,2.53906 -3.207234,8.95353 C 30.33509,260.25041 21.916101,267.73396 16.570711,264.794 11.22532,261.85403 3.4745038,258.51316 3.4745038,258.51316 l 1.202713,-3.74177 5.8799292,-1.73725 z"
       id="path2814"
       inkscape:connector-curvature="0" />
  </g>
</svg>
