<?xml version="1.0" encoding="UTF-8" standalone="no"?>
<!-- Created with Inkscape (http://www.inkscape.org/) -->

<svg
   xmlns:dc="http://purl.org/dc/elements/1.1/"
   xmlns:cc="http://creativecommons.org/ns#"
   xmlns:rdf="http://www.w3.org/1999/02/22-rdf-syntax-ns#"
   xmlns:svg="http://www.w3.org/2000/svg"
   xmlns="http://www.w3.org/2000/svg"
   xmlns:sodipodi="http://sodipodi.sourceforge.net/DTD/sodipodi-0.dtd"
   xmlns:inkscape="http://www.inkscape.org/namespaces/inkscape"
   width="512"
   height="512"
   viewBox="0 0 135.46667 135.46666"
   version="1.1"
   id="svg1574"
   inkscape:version="0.92.4 (5da689c313, 2019-01-14)"
   sodipodi:docname="U+7F8E.svgbg.svg">
  <defs
     id="defs1568" />
  <sodipodi:namedview
     id="base"
     pagecolor="#ffffff"
     bordercolor="#666666"
     borderopacity="1.0"
     inkscape:pageopacity="0.0"
     inkscape:pageshadow="2"
     inkscape:zoom="0.98994949"
     inkscape:cx="40.957776"
     inkscape:cy="188.12815"
     inkscape:document-units="mm"
     inkscape:current-layer="layer1"
     showgrid="false"
     units="px"
     inkscape:window-width="1920"
     inkscape:window-height="1017"
     inkscape:window-x="-8"
     inkscape:window-y="-8"
     inkscape:window-maximized="1" />
  <metadata
     id="metadata1571">
    <rdf:RDF>
      <cc:Work
         rdf:about="">
        <dc:format>image/svg+xml</dc:format>
        <dc:type
           rdf:resource="http://purl.org/dc/dcmitype/StillImage" />
        <dc:title></dc:title>
      </cc:Work>
    </rdf:RDF>
  </metadata>
  <g
     inkscape:label="圖層 1"
     inkscape:groupmode="layer"
     id="layer1"
     transform="translate(0,-161.53336)">
    <path
       style="fill:#000000;stroke:#000000;stroke-width:0.26458332px;stroke-linecap:butt;stroke-linejoin:miter;stroke-opacity:1;fill-opacity:1"
       d="m 35.546847,178.06509 c 1.069078,6.41447 -7.750818,13.0962 -7.750818,13.0962 l -4.543581,4.27632 2.405426,2.40542 11.75986,-8.55262 6.147197,-5.34539 z"
       id="path2152"
       inkscape:connector-curvature="0" />
    <path
       style="fill:#000000;stroke:#000000;stroke-width:0.26458332px;stroke-linecap:butt;stroke-linejoin:miter;stroke-opacity:1;fill-opacity:1"
       d="m 85.793518,177.53055 c 4.276312,-1.33635 4.543581,-1.33635 4.543581,-1.33635 l 4.009043,5.34539 4.81085,0.80181 1.870888,-7.48355 -12.027128,-6.41447 z"
       id="path2154"
       inkscape:connector-curvature="0" />
    <path
       style="fill:#000000;stroke:#000000;stroke-width:0.26458332px;stroke-linecap:butt;stroke-linejoin:miter;stroke-opacity:1;fill-opacity:1"
       d="m 42.495853,195.17034 1.603619,3.74177 30.468725,-9.6217 5.612659,-3.74178 10.156243,5.87993 -1.069078,4.81085 c 0,0 11.492589,4.27632 0,0 -11.49259,-4.27631 -27.796029,2.13816 -27.796029,2.13816 0,0 8.018084,4.54358 7.483546,7.75082 -0.53454,3.20723 9.087162,-0.26727 9.087162,-0.26727 l 2.405428,5.34539 -12.02713,6.1472 -0.267269,9.88897 c 0,0 9.621702,-3.20723 14.432555,-1.06908 4.81085,2.13816 1.870885,6.41447 1.870885,6.41447 l -12.294397,-0.53454 -7.216277,2.93997 -1.603619,3.4745 -4.543581,-2.40543 -16.03617,7.75082 c 0,0 -8.819896,-10.15624 -5.078122,-11.22532 3.741772,-1.06908 6.1472,0.80181 6.1472,0.80181 l 14.967092,-3.20724 0.267269,-9.35443 c 0,0 -12.294396,7.21628 -14.432552,3.20724 -2.138159,-4.00905 -7.750818,-9.35444 -2.672697,-8.55263 5.078122,0.80181 13.630746,-1.87089 13.630746,-1.87089 l 2.672694,-2.40542 -6.414468,-8.28536 -4.009041,2.40543 c 0,0 -6.68174,2.93996 -7.750818,-0.80181 -1.069078,-3.74177 2.405425,-9.35443 2.405425,-9.35443 z"
       id="path2156"
       inkscape:connector-curvature="0" />
    <path
       style="fill:#000000;stroke:#000000;stroke-width:0.26458332px;stroke-linecap:butt;stroke-linejoin:miter;stroke-opacity:1;fill-opacity:1"
       d="m 66.817382,246.48609 c 22.18337,-10.42352 21.381561,-6.41447 22.18337,-10.42352 0.801809,-4.00904 9.888972,6.94901 9.888972,6.94901 l 0.267268,4.27631 -0.801806,1.06908 -1.603619,1.06908 -3.474503,1.06908 -2.405425,-1.33635 c 0,0 18.708861,-0.53454 -2.672696,-1.06908 -21.381561,-0.53454 -21.381561,-1.60361 -21.381561,-1.60361 z"
       id="path2158"
       inkscape:connector-curvature="0" />
    <path
       style="fill:#000000;stroke:#000000;stroke-width:0.26458332px;stroke-linecap:butt;stroke-linejoin:miter;stroke-opacity:1;fill-opacity:1"
       d="m 26.459682,252.36601 c 5.612662,1.87089 22.450642,-1.60361 22.450642,-1.60361 l 12.828937,-6.41447 -16.83798,13.0962 -11.225321,7.75082 c 0,0 -4.276312,-2.67269 -5.078122,-3.74177 -0.801809,-1.06908 -3.474503,-4.81085 -3.474503,-4.81085 z"
       id="path2160"
       inkscape:connector-curvature="0" />
    <path
       style="fill:#000000;stroke:#000000;stroke-width:0.26458332px;stroke-linecap:butt;stroke-linejoin:miter;stroke-opacity:1;fill-opacity:1"
       d="m 48.643053,242.74431 c 26.726953,25.39061 44.634011,38.48681 58.264757,38.75408 13.63075,0.26727 27.79603,5.87993 27.79603,5.87993 l -15.50163,4.27631 -18.4416,4.54359 c 0,0 -26.192413,-20.57976 -28.865109,-25.12334 -2.672694,-4.54358 -15.234362,-16.03617 -15.234362,-16.03617 l -5.87993,15.23436 -13.363475,13.89802 c 0,0 -10.958052,9.88897 -19.243406,6.949 -8.2853556,-2.93996 -14.9670936,-0.8018 -7.483547,-2.93996 7.483547,-2.13815 36.081384,-16.57071 37.150465,-26.99422 1.069078,-10.42351 -5.078121,-17.37252 -5.078121,-17.37252 z"
       id="path2162"
       inkscape:connector-curvature="0" />
  </g>
</svg>
