<?xml version="1.0" standalone="no"?>
<!DOCTYPE svg PUBLIC "-//W3C//DTD SVG 1.1//EN" "http://www.w3.org/Graphics/SVG/1.1/DTD/svg11.dtd" >
<svg xmlns="http://www.w3.org/2000/svg" xmlns:xlink="http://www.w3.org/1999/xlink" version="1.1" viewBox="0 0 256 256">
  <g transform="matrix(1 0 0 -1 0 204)">
   <path fill="currentColor"
d="M150 103q13 -4 16 -9q1 -2 0 -3q-5 -1 -2 -35q7 -77 -3 -77h-1q-2 -5 -7 -5q-97 0 -91 48q-4 -33 29 -36q19 -2 30 -2q11 -1 22 0q15 1 17 12q6 35 -1 56q-3 9 -3 11v12q-1 20 -8 27q-2 2 2 1zM132 84q1 0 11 -4q-1 0 3 -1q2 -1 1 -3q0 -2 -2 -2q-9 -3 -23 -20
q-68 11 -21 31q7 3 41 -22q4 -3 4 -6q0 -2 -4 -3q-10 -2 -18 -6q-2 -1 -14 -3q-5 -1 -6 2q-2 5 8 7q7 2 15 17q2 4 -1 2l-6 -3q-8 -4 -11 -4q-5 -1 -13 -5q-2 -1 -3 -1q-4 0 -3 1q14 0 36 18q5 4 6 5zM84 68q-2 -16 23 -27q2 -1 2 -4q-1 -1 0 -1q-1 -3 -2 -2q-4 0 -20 11
q-5 2 -2 6q-8 11 -4 18q2 1 3 -1zM190 122q2 6 7 6q6 1 8 -1q4 -3 13 -6q3 -1 5 -1q27 0 27 -23q0 11 -27 15q-17 3 -27 3q-10 1 -20 -1q-11 -3 -12 -3q-4 -1 -4 0t2 3q-61 -22 -82 -23l-86 -30q6 27 64 32q26.4559 2.76049 27 6q49 15 105 23zM125 206q12 -8 10 -10
q-1 -1 -2 -3q-3 -5 -3 -9q-1 -11 -4 -22q19 5 22 9q1 2 2 3l2 2q9 3 11 2q6 -5 12 -5q5 0 5 -5q0 -3 -8 -1q-7 1 -14 -2q-16 -6 -35 -11q-11 -31 -34 -48q-4 -3 -5 -2q0 2 3 5q18 18 28 43q-5 -4 -6 -2l6 2l-116 35l75 -34q15 0 4 1q-49 1 27 1q1 0 7 2q6 1 6 2q4 11 4 45v2
q1 1 3 0zM127 140q-3 0 -3 1q1 1 4 2q24 -3 42 -9q6 -5 1 -9q-4 -4 -18 6q-6 3 -20 7z" />
  </g>

</svg>
