<?xml version="1.0" standalone="no"?>
<!DOCTYPE svg PUBLIC "-//W3C//DTD SVG 1.1//EN" "http://www.w3.org/Graphics/SVG/1.1/DTD/svg11.dtd" >
<svg xmlns="http://www.w3.org/2000/svg" xmlns:xlink="http://www.w3.org/1999/xlink" version="1.1" viewBox="0 0 256 256">
  <g transform="matrix(1 0 0 -1 0 204)">
   <path fill="currentColor"
d="M84 107q3 -1 3 -3q1 -1 -1 -4q-8 -6 -10 -39q1 -2 1 -3t-1 -1q-1 -1 -3 -2q0 -6 1 -7t3 2q2 5 2 -1q-2 -7 2 -10q0 -2 2 -4l5 -5q2 -6 -2 -5q-7 -2 -11 6q-2 -4 -5 -11q-6 -16 -8 -22q-5 -13 -11 -9q-11 10 -9 42q-1 14 0 26q1 11 4 26q0 4 1 1q2 -4 2 -14v-5
q-2 -10 -2 -19l2 1q8 4 12 9q4 4 12 7q-1 2 -1 9q1 5 1 8q-9 -5 -13 -10q-2 -3 -3 -3v3q-2 5 2 8q6 5 15 8q-1 7 1 14q0 2 -1 2q-1 1 -3 0q-23 -13 -34 -14q-5 -1 0 2q17 6 31 19q2 4 16 -2zM147 204q5 -1 10 -6q2 -1 1 -5q-2 -9 -1 -18h1l4 2q-1 1 2 3h2q8 0 13 -2
q1 0 1 -2q1 -3 -5 -3q-8 0 -19 -6q0 -14 -4 -21q7 1 16 3q4 0 6 1q-1 5 1 5q4 0 4 -1q4 -2 11 -4q5 -1 3 -3q-1 -3 -4 -2h-16q-16 -3 -54 -13q-3 -2 -5 -1h-10q-3 1 -4 1q-3 1 -1 2q20 1 46 11q-2 2 -2 3q-2 1 0 2q5 3 5 15q-25 -9 -32 -3q-3 1 0 2q16 1 33 8q1 23 -4 30
q-2 1 2 2zM70 54q-2 -1 -4 -3q-1 -1 -2 -1q-5 -5 -17 -6q-4 -30 1 -44q0 -2 2 -3q3 -1 5 2q5 7 15 28q2 5 4 5q-4 9 -4 22zM168 131q-4 4 1 2q7 -1 13 -2q2 -1 2 -2q1 -1 0 -2q0 -2 -1 -4v-5q2 0 4 2q4 5 20 2q3 -2 0 -4q-11 0 -24 -6q-2 -14 -4 -21q5 0 14 2q8 1 13 2
q0 1 3 3q13 -2 20 -6q0 -3 -2 -4q-2 0 -6 1q-2 0 -3 1q-6 2 -13 1q-25 -3 -43 -7q-1 -1 -3 -1q-5 -2 -8 1q-2 1 1 2q1 -1 8 1h1q7 0 12 3v1q2 8 2 19q-14 -4 -20 -2q-5 1 0 2q9 1 19 4q0 8 -6 17zM150 59q-8 -13 -13 -23q-11 -21 -18 -32q-7 -8 -19 -22q-2 -2 -2 -4
q-3 -2 -4 -1q0 1 3 4q23 30 51 84q-6 -3 -15 -6q-10 -4 -14 -5q-9 -4 -12 -2t0 10q0 1 1 1t2 -1q0 -3 5 -2l4 2q17 3 31 8q3 6 7 3h1q12 3 14 5q3 -2 1 -5q-12 -4 -23 -14zM154 45q1 -2 3 -4q2 -4 -2 -5q-8 -9 -5 -33q2 -8 11 -13q27 -14 66 -1q3 1 3 7q-1 4 -3 18
q-1 6 -1 9q-1 5 1 0q4 -7 9 -18q2 -5 7 -8q4 -5 0 -7q-59 -18 -83 -3q-10 6 -13 15q-4 19 5 43q1 1 2 0zM115 129q2 -3 7 -6q1 -2 3 -2q1 -1 1 -5q-2 -3 -1 -8q4 2 7 2q5 -1 12 -2q1 0 0 -2q0 -2 -1 -2t-2 1q-6 0 -16 -4q-2 -7 -6 -19q15 4 15 6q2 1 4 1h7q3 -4 1 -5l-12 -2
q-10 -2 -26 -8q-3 -1 -7 -2q-10 -4 -16 2q-3 0 0 1q9 -1 16 2h2q4 2 11 4q5 4 5 18q-14 -6 -25 -3q-2 0 0 1q10 0 25 7q0 10 -1 14q0 4 -3 9q-2 2 0 2zM72 186q6 -7 1 -12q-12 -16 -40 -50q-7 -8 -10 -12q-4 -4 -5 -3t2 6q27 38 35 48q1 1 3 4q9 14 10 18q1 3 4 1zM73 164
q21 2 32 -5q2 -7 -1 -6q-5 0 -10 2q-2 0 -7 -2l-1 -1q-5 -3 -6 -2q-1 0 2 4q3 6 -9 8q-5 1 0 2zM53 133q-2 1 1 2q21 -2 26 -14q-1 -4 -6 -2q-2 2 -11 2q-6 0 -4 3q2 1 1 4q-2 3 -7 5z" />
  </g>

</svg>
